<?xml version="1.0" encoding="UTF-8" standalone="no"?>
<!DOCTYPE svg PUBLIC "-//W3C//DTD SVG 1.1//EN"
"http://www.w3.org/Graphics/SVG/1.1/DTD/svg11.dtd">
<svg viewBox="0 0 682 880" version="1.1" xmlns="http://www.w3.org/2000/svg" xmlns:xlink="http://www.w3.org/1999/xlink">
<defs>
<clipPath id="c0_1"><path d="M506.5,173.9V6.8H673.7V173.9Z"/></clipPath>
<clipPath id="c1_1"><path d="M48.2,611.8V35.5H624.6V611.8Z"/></clipPath>
<style type="text/css"><![CDATA[
.g0_1{
fill: #050505;
}
.g1_1{
fill: none;
stroke: #231F20;
stroke-width: 0.763;
stroke-linecap: butt;
stroke-linejoin: miter;
stroke-miterlimit: 2;
}
.g2_1{
fill: #FFB526;
}
.g3_1{
fill: #FFFFFF;
}
.g4_1{
fill: none;
stroke: #FFFFFF;
stroke-width: 6.111;
stroke-linecap: round;
stroke-linejoin: round;
stroke-miterlimit: 2;
}
.g5_1{
fill: #EC131C;
}
.g6_1{
fill: #F68E13;
}
.g7_1{
fill: #71C436;
}
.g8_1{
fill: #00A9EE;
}
.g9_1{
fill: #79539E;
}
.ga_1{
fill: #FD3D33;
}
.gb_1{
fill: #FFA300;
}
.gc_1{
fill: #FFE200;
}
.gd_1{
fill: #66C131;
}
.ge_1{
fill: #2DCFFF;
}
.gf_1{
fill: #0050DD;
}
.gg_1{
fill: #753DFF;
}
]]></style>
</defs>
<path fill-rule="evenodd" d="M0,0H682V880H0Z" class="g0_1"/>
<image clip-path="url(#c0_1)" preserveAspectRatio="none" x="507" y="7" width="167" height="167" xlink:href="img/1.png"/>
<image clip-path="url(#c1_1)" preserveAspectRatio="none" x="48" y="36" width="577" height="576" xlink:href="img/2.jpg"/>
<path d="M0,0H682V880H0Z" class="g1_1"/>
<path d="M497.9,791.6c-.1,.3,.1,-.1,-.2,.5c-.4,.7,-.8,1.4,-1.2,2c-1.6,2.1,-3.7,3.9,-5.9,5.3c-10.4,6.4,-24.1,5.7,-35.6,3.9c-21.9,-3.6,-42,-14.1,-64.3,-16c-12.6,-1.1,-26.1,.2,-37.3,6.6c-4.6,2.6,-9.5,6.4,-12.2,11.1c.7,0,1.4,0,2.1,0c-2.1,-3.8,-5.9,-7,-9.5,-9.4c-9.8,-6.7,-22.2,-8.9,-33.9,-8.7c-9.6,.2,-19.2,2,-28.5,4.6c-11.8,3.2,-23.1,7.9,-35.1,10.5c-12.6,2.7,-27.8,4.6,-39.9,-1.3c-3,-1.4,-5.9,-3.5,-8,-6.1c-.5,-.8,-1,-1.5,-1.4,-2.3c-.3,-.5,-.3,-.6,-.4,-.7c-.5,-1.5,-2.8,-.9,-2.3,.6c1.2,3.5,4.3,6.4,7.2,8.4c9,6.3,21.1,6.8,31.6,5.9c9.9,-1,19.7,-3.3,29.2,-6.3c11.4,-3.7,22.6,-7.8,34.5,-9.7c13.9,-2.2,29.1,-2,41.7,4.7c4.8,2.5,10.1,6.2,12.7,11c.5,.8,1.7,.8,2.1,0c2.2,-3.8,6.2,-7,9.9,-9.3c11,-7,24.7,-8.4,37.5,-7.2c22.6,1.9,42.8,12.8,65.1,16.1c11.5,1.7,24.5,2.1,35,-3.8c3.8,-2.1,8,-5.5,9.4,-9.8c.5,-1.5,-1.8,-2.1,-2.3,-.6Z" class="g2_1"/>
<path d="M500.2,653.1C499,649.6,496,646.7,493,644.7c-9,-6.3,-21,-6.8,-31.5,-5.8c-10,.9,-19.7,3.2,-29.2,6.2c-11.5,3.7,-22.6,7.8,-34.6,9.7c-13.8,2.2,-29,2,-41.7,-4.7c-4.7,-2.5,-10,-6.2,-12.7,-11c-.4,-.8,-1.6,-.8,-2.1,0c-2.1,3.8,-6.1,7,-9.8,9.4c-11.1,6.9,-24.8,8.3,-37.6,7.2c-22.5,-2,-42.8,-12.9,-65,-16.2c-11.5,-1.6,-24.6,-2,-35,3.8c-3.8,2.1,-8,5.5,-9.5,9.8c-.5,1.5,1.8,2.1,2.3,.7c.1,-.3,0,0,.3,-.6c.3,-.7,.7,-1.3,1.2,-2c1.5,-2.1,3.6,-3.9,5.9,-5.3c10.3,-6.3,24,-5.7,35.5,-3.8c22,3.5,42,14,64.3,16c12.7,1.1,26.1,-.3,37.3,-6.7c4.6,-2.6,9.6,-6.4,12.2,-11.1c-.7,0,-1.4,0,-2.1,0c2.2,3.8,6,7,9.5,9.4c9.9,6.7,22.2,8.9,33.9,8.7c9.7,-.2,19.3,-2,28.6,-4.5c11.8,-3.3,23.1,-8,35.1,-10.6c12.6,-2.7,27.7,-4.6,39.8,1.3c3.1,1.5,5.9,3.5,8,6.2c.6,.7,1.1,1.4,1.5,2.2q.3,.6,.3,.8c.5,1.4,2.8,.8,2.3,-.7Z" class="g2_1"/>
<path d="M266.1,386.3c-.5,0,-1,.1,-1.6,.2c-.6,.2,-1.3,.6,-1.9,1.1c-.6,.5,-1.3,1.3,-1.9,2.2c-.6,.9,-1.1,2.2,-1.6,3.7c-.5,1.5,-.9,3.3,-1.2,5.4c-.3,2.1,-.5,4.7,-.5,7.6c0,2.7,.2,5.1,.5,7.2c.3,2,.7,3.7,1.2,5.2c.5,1.4,1.1,2.6,1.7,3.5c.7,.9,1.4,1.6,2.1,2.1c.7,.5,1.4,.8,2.1,1c.8,.2,1.4,.3,2.1,.3c.6,0,1.3,-.1,2,-.3c.7,-.1,1.3,-.4,2,-.7c.7,-.3,1.3,-.7,1.9,-1.2c.6,-.4,1.2,-1,1.7,-1.6l1.1,1.2c-.5,.6,-1.1,1.3,-1.8,1.9c-.7,.7,-1.6,1.3,-2.5,1.8c-1,.5,-2,1,-3.2,1.3c-1.2,.4,-2.5,.5,-3.9,.5c-2.3,0,-4.4,-.4,-6.3,-1.2c-1.9,-.9,-3.6,-2.2,-5,-4c-1.4,-1.8,-2.5,-4.1,-3.4,-7c-.8,-2.8,-1.2,-6.2,-1.2,-10.1c0,-3.7,.5,-6.9,1.3,-9.7c.9,-2.8,2,-5.1,3.5,-7c1.5,-1.9,3.2,-3.3,5.2,-4.2c2,-1,4.1,-1.4,6.3,-1.4c1.5,0,2.8,.1,4.1,.4c1.2,.3,2.2,.7,3.1,1.2c.9,.6,1.6,1.2,2.1,2c.5,.8,.7,1.7,.7,2.7c0,.5,-.1,1,-.2,1.5c-.2,.5,-.4,.9,-.7,1.3c-.3,.5,-.7,.8,-1.2,1.1c-.4,.2,-1,.4,-1.6,.4c-.5,0,-1,-.2,-1.3,-.4c-.3,-.2,-.5,-.5,-.6,-.9c-.2,-.4,-.3,-.9,-.3,-1.4c-.1,-.5,-.1,-1,-.1,-1.5c0,-.6,-.1,-1.1,-.1,-1.6c-.1,-.5,-.2,-.9,-.4,-1.3c-.2,-.4,-.4,-.7,-.8,-1c-.3,-.2,-.8,-.3,-1.4,-.3Zm23.7,22.8c0,-.4,-.2,-.8,-.4,-1c-.3,-.2,-.7,-.3,-1.1,-.3c-.6,0,-1.2,.1,-1.7,.4c-.5,.3,-1,.7,-1.4,1.2c-.4,.5,-.8,1.2,-1,2c-.2,.8,-.3,1.7,-.3,2.7c0,1,0,1.8,.2,2.4c.1,.7,.3,1.2,.6,1.6c.2,.4,.5,.6,.8,.8c.3,.1,.7,.2,1,.2c.5,0,.9,-.1,1.3,-.3c.4,-.3,.7,-.5,1,-.9c.3,-.4,.5,-.8,.7,-1.2c.2,-.5,.3,-.9,.3,-1.3Zm-4.1,-11.2c-.6,0,-1.1,0,-1.6,.2c-.5,.1,-.9,.3,-1.3,.5c-.4,.2,-.6,.4,-.8,.7c-.2,.2,-.4,.5,-.4,.7c0,.2,.2,.4,.4,.5c.3,.1,.6,.3,.9,.4c.3,.2,.6,.4,.9,.6c.3,.3,.4,.7,.4,1.2c0,.4,-.1,.7,-.2,1c-.2,.3,-.3,.6,-.6,.8c-.2,.3,-.5,.4,-.9,.6c-.3,.1,-.7,.2,-1,.2c-1,0,-1.7,-.4,-2.3,-1c-.6,-.7,-.9,-1.5,-.9,-2.6c0,-1,.3,-1.9,.8,-2.7c.6,-.7,1.3,-1.3,2.1,-1.8c.9,-.5,1.9,-.8,3,-1.1c1.1,-.2,2.3,-.3,3.4,-.3c1.3,0,2.6,.1,3.8,.4c1.2,.3,2.3,.8,3.2,1.4c.9,.6,1.7,1.4,2.2,2.4c.6,1,.9,2.2,.9,3.5V418c0,.2,0,.3,0,.5c0,.2,.1,.4,.1,.5c.1,.2,.2,.3,.3,.4c.2,.1,.4,.2,.6,.2c.3,0,.6,-.1,.9,-.4c.2,-.2,.5,-.4,.7,-.7l.6,.6c-.2,.3,-.5,.7,-.9,1.2c-.4,.4,-.8,.8,-1.3,1.2c-.5,.3,-1.1,.7,-1.8,.9c-.7,.3,-1.5,.4,-2.3,.4c-1.1,0,-2.1,-.3,-2.9,-1c-.8,-.6,-1.4,-1.6,-1.6,-2.9c-.6,.7,-1.2,1.3,-1.7,1.8c-.6,.5,-1.2,.9,-1.9,1.2c-.6,.3,-1.2,.6,-1.8,.7c-.6,.1,-1.3,.2,-1.9,.2c-.8,0,-1.6,-.1,-2.4,-.4c-.8,-.2,-1.4,-.7,-2,-1.2c-.7,-.6,-1.1,-1.3,-1.5,-2.2c-.4,-.9,-.6,-1.9,-.6,-3.2c0,-1.6,.4,-2.9,1,-3.8c.6,-1,1.4,-1.9,2.4,-2.6c1,-.6,2.1,-1.2,3.4,-1.7c1.3,-.5,2.6,-1,3.9,-1.5c1,-.4,1.7,-1,2.2,-1.7c.4,-.8,.6,-1.6,.6,-2.4c0,-1.3,-.3,-2.3,-1.1,-3.1c-.7,-.7,-1.7,-1.1,-3,-1.1ZM317,384.3c-.5,0,-.9,.1,-1.3,.3c-.5,.2,-.8,.5,-1.2,1c-.3,.4,-.5,1,-.7,1.7c-.2,.7,-.3,1.5,-.3,2.5v6.3h5.6V398h-5.6v20.2c0,2.3,-.3,4.4,-.9,6.4c-.6,2,-1.5,3.7,-2.8,5.1c-1.2,1.4,-2.7,2.5,-4.6,3.3c-1.8,.9,-4,1.2,-6.4,1.2c-.9,0,-1.7,0,-2.5,-.2c-.8,-.1,-1.6,-.3,-2.2,-.6c-.6,-.2,-1.1,-.5,-1.4,-.9c-.4,-.3,-.6,-.7,-.6,-1.2c0,-.3,0,-.6,.1,-.9c.1,-.3,.2,-.6,.4,-.8c.2,-.3,.4,-.5,.6,-.7c.3,-.1,.6,-.2,.9,-.2c.2,0,.4,.1,.5,.3c.1,.2,.3,.4,.5,.7c.1,.2,.3,.5,.5,.9c.2,.3,.4,.6,.7,.9c.3,.3,.7,.5,1.2,.7c.4,.2,1,.3,1.6,.3c.9,0,1.7,-.2,2.3,-.6c.7,-.3,1.3,-.8,1.8,-1.4c.4,-.6,.8,-1.4,1.2,-2.2c.3,-.8,.5,-1.7,.7,-2.7c.2,-.9,.3,-2,.4,-3c.1,-1,.1,-2.1,.1,-3.1V398h-4.7v-1.9h4.7v-3c0,-1.5,.2,-2.8,.6,-3.9c.4,-1.1,.8,-2.1,1.5,-2.9c.6,-.7,1.2,-1.4,2,-1.9c.8,-.5,1.6,-.9,2.4,-1.2c.8,-.3,1.5,-.4,2.3,-.6c.7,-.1,1.4,-.1,1.9,-.1c1.3,0,2.3,.1,3.3,.3c.9,.1,1.7,.4,2.3,.7c.7,.3,1.2,.6,1.5,1c.3,.4,.5,.8,.5,1.2c0,.3,-.1,.6,-.2,1c-.1,.3,-.2,.6,-.4,.8c-.1,.3,-.4,.5,-.6,.7c-.3,.1,-.5,.2,-.8,.2c-.2,0,-.4,-.1,-.5,-.3c-.2,-.2,-.4,-.5,-.5,-.8c-.2,-.3,-.4,-.6,-.6,-1c-.2,-.3,-.5,-.6,-.8,-1c-.3,-.3,-.6,-.5,-1,-.7c-.4,-.2,-.9,-.3,-1.5,-.3Zm10.6,26.3c0,.6,0,1.2,.2,1.8c.2,.6,.4,1.3,.7,1.9c.3,.7,.7,1.3,1.1,1.9c.5,.6,1,1.1,1.6,1.6c.6,.4,1.3,.8,2,1.1c.7,.2,1.5,.4,2.3,.4c.6,0,1.2,-.1,1.7,-.2c.5,-.2,1,-.4,1.4,-.6c.5,-.2,.9,-.5,1.3,-.8c.4,-.3,.8,-.7,1.2,-1l.7,.6c-.4,.5,-.9,1.1,-1.5,1.7c-.6,.7,-1.4,1.2,-2.3,1.8c-.8,.6,-1.9,1,-3,1.4c-1.2,.4,-2.5,.5,-4,.5c-1.5,0,-2.9,-.2,-4.3,-.8c-1.4,-.5,-2.7,-1.3,-3.8,-2.4c-1.1,-1.1,-1.9,-2.4,-2.6,-4c-.7,-1.6,-1,-3.5,-1,-5.7c0,-1.5,.2,-2.9,.6,-4.2c.4,-1.3,.9,-2.5,1.6,-3.5c.7,-1.1,1.5,-2,2.4,-2.8c.8,-.8,1.8,-1.4,2.8,-2c1,-.5,2,-.9,3,-1.1c1.1,-.3,2.1,-.4,3,-.4c1.3,0,2.4,.1,3.3,.4c1,.3,1.7,.6,2.4,1.1c.6,.5,1,1,1.4,1.6c.3,.6,.4,1.2,.4,1.9c0,.8,-.2,1.5,-.7,2.2c-.4,.6,-1.1,1.2,-1.8,1.6Zm5.1,-5.2c.2,-.1,.4,-.3,.6,-.4c.1,-.1,.2,-.3,.3,-.5c.1,-.1,.2,-.4,.2,-.6c0,-.3,.1,-.6,.1,-1c0,-.4,-.1,-.9,-.2,-1.4c-.1,-.5,-.2,-1,-.5,-1.5c-.2,-.5,-.5,-.8,-.8,-1.1c-.3,-.4,-.7,-.5,-1.2,-.5c-.6,0,-1.2,.2,-1.6,.5c-.4,.4,-.8,.9,-1.1,1.5c-.3,.5,-.5,1.2,-.6,1.9c-.2,.8,-.3,1.5,-.4,2.3c-.1,.7,-.2,1.5,-.2,2.2c0,.6,0,1.2,0,1.7Zm-5.1,-12.9l7,-6.8c.3,-.2,.6,-.4,.9,-.6c.3,-.2,.7,-.2,1,-.2c.3,0,.6,0,.9,.2c.2,.1,.5,.3,.7,.6c.2,.2,.3,.5,.5,.8c.1,.3,.1,.6,.1,.9c0,.4,-.1,.8,-.4,1.1c-.3,.4,-.7,.6,-1.1,.8l-9.1,3.9Z" class="g3_1"/>
<path d="M241.8,491.3c1.6,-8,4.5,-15.1,8.5,-21.5c4.1,-6.4,9,-11.8,14.7,-16.3c5.6,-4.5,11.9,-8,18.8,-10.4c6.9,-2.4,13.9,-3.5,21.1,-3.5c6.7,.1,12.4,1.3,16.8,3.7c4.5,2.3,7.9,5.2,10.4,8.6c2.4,3.4,4,7.2,4.6,11.2c.7,4.1,.6,7.9,-.1,11.5c-1.4,6.4,-3.9,12.8,-7.6,18.9c-3.7,6.1,-8.2,11.8,-13.6,17.1c-5.4,5.2,-11.5,9.9,-18.2,14.1c-6.7,4.2,-13.8,7.6,-21.1,10.2c1.9,3.3,4.5,7.1,7.5,11.4c3.1,4.3,6.6,8.4,10.6,12.5c4.1,4,8.5,7.7,13.3,11.1c4.8,3.3,10,5.8,15.5,7.3c5.6,1.5,11.4,1.8,17.6,.9c6.2,-.9,12.6,-3.5,19.3,-7.9c-.9,2.4,-1.8,4.6,-2.7,6.6c-.8,1.7,-1.7,3.3,-2.8,4.9c-1,1.6,-2,2.6,-2.9,3c-8.2,3.3,-15.7,4.8,-22.5,4.7c-6.7,-.1,-12.9,-1.4,-18.5,-3.8c-5.6,-2.4,-10.5,-5.7,-14.8,-9.9c-4.3,-4.1,-8.2,-8.5,-11.5,-13.1c-3.3,-4.7,-6.1,-9.3,-8.4,-13.9c-2.3,-4.6,-4.2,-8.6,-5.8,-12c-3.4,1,-6.8,1.8,-10.1,2.3l-9.3,33c-.2,.5,-.6,.8,-1.3,1c-.8,.1,-1.5,.1,-2.3,.1c-.8,-.1,-1.4,-.3,-2,-.6c-.6,-.4,-.8,-.7,-.7,-1.2c.6,-2.7,1.3,-5.7,2.1,-9.1c.7,-2.8,1.5,-6.2,2.4,-10c1,-3.8,1.9,-7.9,3,-12.3c-1.6,.1,-3.1,.2,-4.7,.3c-1.6,0,-3.1,0,-4.5,-.2c-1.1,-.1,-1.8,-.4,-2.2,-.9c-.3,-.5,-.4,-1,-.2,-1.6c.2,-.6,.6,-1.1,1.2,-1.6c.6,-.6,1.4,-.9,2.4,-.9c1.7,-.1,3.3,-.2,4.8,-.4c1.5,-.1,3,-.2,4.5,-.4c.8,-3.1,1.5,-6,2.1,-8.8c.6,-2.8,1.3,-5.7,2,-8.8c-2.3,-.5,-4.6,-1.3,-6.7,-2.5c-2.2,-1.1,-4.1,-2.7,-5.7,-4.7c-1.5,-2.1,-2.6,-4.6,-3.3,-7.5c-.6,-3,-.5,-6.5,.3,-10.6Zm25.6,-18.9c.2,0,1,-.5,2.5,-1.3c1.6,-.8,3.1,-1.6,4.7,-2.3c1.6,-.7,2.9,-1.1,4,-1.1c1.2,-.1,1.4,.6,.9,2.1L269,507c2.7,-.8,5.7,-2.1,8.9,-4c3.2,-1.9,6.7,-4.7,10.4,-8.5c.7,-.7,1.1,-.6,1.3,.3c.3,.9,.3,2,.3,3.5c-.1,1.5,-.3,3,-.7,4.5c-.4,1.5,-.8,2.6,-1.2,3.3c-.8,1.3,-2,2.6,-3.5,3.8c-1.5,1.2,-3.3,2.3,-5.2,3.2c-1.9,1,-4,1.9,-6.3,2.6c-2.3,.6,-4.6,1.1,-6.9,1.3l-4.5,15.8c15.4,-3.2,28.3,-9.5,38.8,-18.9c10.4,-9.5,17.8,-22.1,22.1,-37.8c.6,-2.3,.8,-5.1,.5,-8.3c-.3,-3.2,-1.1,-6.2,-2.6,-9.1c-1.5,-2.9,-3.6,-5.4,-6.3,-7.5c-2.7,-2,-6.2,-3.1,-10.3,-3.1c-3.4,-.1,-6.9,.1,-10.7,.7c-3.7,.6,-7.4,1.5,-11.1,2.8c-3.7,1.3,-7.4,3,-10.9,5c-3.5,2,-6.8,4.5,-9.8,7.3c-2.9,2.8,-5.5,6,-7.8,9.6c-2.3,3.6,-4.1,7.7,-5.2,12.1c-1.8,6.3,-1.6,11.4,.6,15.2c2.1,3.9,5.6,6.2,10.4,6.9c1.1,-4.6,2.2,-9.1,3.2,-13.4c1,-4.3,1.9,-8.1,2.6,-11.3c.8,-3.2,1.3,-5.8,1.8,-7.7c.4,-2,.6,-2.9,.5,-2.9ZM351.3,502c.5,0,1.2,0,2.2,.1c1,.1,1.9,.3,2.9,.7c.9,.4,1.6,.9,2.1,1.7c.6,.8,.6,1.8,.2,3.1c-.1,.3,-.6,1.7,-1.4,4.1c-.7,2.5,-1.6,5.5,-2.7,9c-1.1,3.5,-2.2,7.3,-3.3,11.3c-1.2,4,-2.2,7.7,-3.2,11.1c-.9,3.4,-1.6,6.3,-2.1,8.6c-.5,2.3,-.6,3.4,-.3,3.4c.8,.1,1.8,-.5,2.9,-1.6c1.1,-1.2,2.3,-2.7,3.5,-4.4c1.3,-1.8,2.5,-3.7,3.8,-5.7c1.2,-2,2.3,-3.9,3.3,-5.7c1,-1.7,1.8,-3.2,2.4,-4.4c.6,-1.1,1,-1.7,1.1,-1.7c0,0,.2,0,.6,0c.3,.1,.6,.1,1,.1c.4,.1,.7,.2,.9,.3c.3,.1,.4,.2,.3,.5c0,.1,-.4,.9,-1.2,2.5c-.8,1.5,-1.8,3.4,-3.1,5.6c-1.2,2.2,-2.7,4.6,-4.4,7.2c-1.7,2.6,-3.5,5,-5.4,7.2c-1.8,2.1,-3.7,3.9,-5.7,5.3c-1.9,1.4,-3.7,2.1,-5.5,2c-.9,0,-1.7,-.2,-2.2,-.6c-.6,-.4,-1,-.9,-1.4,-1.5c-.4,-.7,-.6,-1.4,-.7,-2.2c0,-.8,-.1,-1.6,-.2,-2.4c-1.4,1.7,-2.9,3.1,-4.4,4c-1.4,1,-2.8,1.6,-4.1,2.1c-1.3,.4,-2.5,.7,-3.4,.7c-1,0,-1.6,0,-2.1,-.1c-1,0,-2.3,-.4,-3.8,-1c-1.5,-.6,-2.9,-1.9,-4,-3.8c-1.1,-2,-1.7,-4.8,-1.9,-8.5c-.2,-3.7,.5,-8.8,2.2,-15.1c1.4,-5.5,3.1,-10.1,4.9,-13.9c1.8,-3.7,3.7,-6.8,5.6,-9.2c2,-2.4,3.9,-4.3,5.8,-5.7c2,-1.3,3.7,-2.3,5.4,-2.9c1.6,-.5,3,-.9,4.2,-1c1.2,-.1,2,-.2,2.5,-.2c1.1,0,2,.3,2.7,.8c.7,.4,1.3,1,1.9,1.7c.5,.7,.9,1.4,1.2,2.3c.2,.8,.4,1.5,.6,2.2c.6,-1.8,1,-3.2,1.4,-4.3c.4,-1,.7,-1.6,.9,-1.7Zm-24.9,55.1c1.4,0,2.7,-.4,3.8,-1.1c1.1,-.6,2.1,-1.5,3,-2.5c.8,-1,1.6,-2,2.3,-3.1c.6,-1.2,1.3,-2.3,1.9,-3.3c.4,-1.9,1,-4.1,1.8,-6.7c.7,-2.6,1.5,-5.3,2.4,-8.2c.8,-2.9,1.7,-5.8,2.6,-8.7c.8,-2.9,1.7,-5.7,2.5,-8.3c-.2,.1,-.2,-.1,0,-.7c.3,-.9,.3,-1.9,.2,-3c-.2,-1.1,-.4,-2,-.9,-2.9c-.4,-.9,-1,-1.6,-1.6,-2.2c-.7,-.6,-1.4,-.9,-2.1,-.9c-1.4,0,-2.7,.6,-4.1,1.6c-1.3,1.1,-2.5,2.5,-3.8,4.2c-1.2,1.7,-2.4,3.6,-3.4,5.7c-1.1,2,-2,4.1,-2.9,6.2c-.8,2,-1.6,3.9,-2.2,5.6c-.6,1.8,-1,3.2,-1.3,4.2c-.6,1.5,-1.1,3.5,-1.7,6.2c-.6,2.7,-.9,5.4,-1.1,8.1c-.1,2.7,.1,5.1,.7,7c.7,1.9,2,2.9,3.9,2.8Z" class="g4_1"/>
<path d="M241.8,491.3c1.6,-8,4.5,-15.1,8.5,-21.5c4.1,-6.4,9,-11.8,14.7,-16.3c5.6,-4.5,11.9,-8,18.8,-10.4c6.9,-2.4,13.9,-3.5,21.1,-3.5c6.7,.1,12.4,1.3,16.8,3.7c4.5,2.3,7.9,5.2,10.4,8.6c2.4,3.4,4,7.2,4.6,11.2c.7,4.1,.6,7.9,-.1,11.5c-1.4,6.4,-3.9,12.8,-7.6,18.9c-3.7,6.1,-8.2,11.8,-13.6,17.1c-5.4,5.2,-11.5,9.9,-18.2,14.1c-6.7,4.2,-13.8,7.6,-21.1,10.2c1.9,3.3,4.5,7.1,7.5,11.4c3.1,4.3,6.6,8.4,10.6,12.5c4.1,4,8.5,7.7,13.3,11.1c4.8,3.3,10,5.8,15.5,7.3c5.6,1.5,11.4,1.8,17.6,.9c6.2,-.9,12.6,-3.5,19.3,-7.9c-.9,2.4,-1.8,4.6,-2.7,6.6c-.8,1.7,-1.7,3.3,-2.8,4.9c-1,1.6,-2,2.6,-2.9,3c-8.2,3.3,-15.7,4.8,-22.5,4.7c-6.7,-.1,-12.9,-1.4,-18.5,-3.8c-5.6,-2.4,-10.5,-5.7,-14.8,-9.9c-4.3,-4.1,-8.2,-8.5,-11.5,-13.1c-3.3,-4.7,-6.1,-9.3,-8.4,-13.9c-2.3,-4.6,-4.2,-8.6,-5.8,-12c-3.4,1,-6.8,1.8,-10.1,2.3l-9.3,33c-.2,.5,-.6,.8,-1.3,1c-.8,.1,-1.5,.1,-2.3,.1c-.8,-.1,-1.4,-.3,-2,-.6c-.6,-.4,-.8,-.7,-.7,-1.2c.6,-2.7,1.3,-5.7,2.1,-9.1c.7,-2.8,1.5,-6.2,2.4,-10c1,-3.8,1.9,-7.9,3,-12.3c-1.6,.1,-3.1,.2,-4.7,.3c-1.6,0,-3.1,0,-4.5,-.2c-1.1,-.1,-1.8,-.4,-2.2,-.9c-.3,-.5,-.4,-1,-.2,-1.6c.2,-.6,.6,-1.1,1.2,-1.6c.6,-.6,1.4,-.9,2.4,-.9c1.7,-.1,3.3,-.2,4.8,-.4c1.5,-.1,3,-.2,4.5,-.4c.8,-3.1,1.5,-6,2.1,-8.8c.6,-2.8,1.3,-5.7,2,-8.8c-2.3,-.5,-4.6,-1.3,-6.7,-2.5c-2.2,-1.1,-4.1,-2.7,-5.7,-4.7c-1.5,-2.1,-2.6,-4.6,-3.3,-7.5c-.6,-3,-.5,-6.5,.3,-10.6Zm25.6,-18.9c.2,0,1,-.5,2.5,-1.3c1.6,-.8,3.1,-1.6,4.7,-2.3c1.6,-.7,2.9,-1.1,4,-1.1c1.2,-.1,1.4,.6,.9,2.1L269,507c2.7,-.8,5.7,-2.1,8.9,-4c3.2,-1.9,6.7,-4.7,10.4,-8.5c.7,-.7,1.1,-.6,1.3,.3c.3,.9,.3,2,.3,3.5c-.1,1.5,-.3,3,-.7,4.5c-.4,1.5,-.8,2.6,-1.2,3.3c-.8,1.3,-2,2.6,-3.5,3.8c-1.5,1.2,-3.3,2.3,-5.2,3.2c-1.9,1,-4,1.9,-6.3,2.6c-2.3,.6,-4.6,1.1,-6.9,1.3l-4.5,15.8c15.4,-3.2,28.3,-9.5,38.8,-18.9c10.4,-9.5,17.8,-22.1,22.1,-37.8c.6,-2.3,.8,-5.1,.5,-8.3c-.3,-3.2,-1.1,-6.2,-2.6,-9.1c-1.5,-2.9,-3.6,-5.4,-6.3,-7.5c-2.7,-2,-6.2,-3.1,-10.3,-3.1c-3.4,-.1,-6.9,.1,-10.7,.7c-3.7,.6,-7.4,1.5,-11.1,2.8c-3.7,1.3,-7.4,3,-10.9,5c-3.5,2,-6.8,4.5,-9.8,7.3c-2.9,2.8,-5.5,6,-7.8,9.6c-2.3,3.6,-4.1,7.7,-5.2,12.1c-1.8,6.3,-1.6,11.4,.6,15.2c2.1,3.9,5.6,6.2,10.4,6.9c1.1,-4.6,2.2,-9.1,3.2,-13.4c1,-4.3,1.9,-8.1,2.6,-11.3c.8,-3.2,1.3,-5.8,1.8,-7.7c.4,-2,.6,-2.9,.5,-2.9ZM351.3,502c.5,0,1.2,0,2.2,.1c1,.1,1.9,.3,2.9,.7c.9,.4,1.6,.9,2.1,1.7c.6,.8,.6,1.8,.2,3.1c-.1,.3,-.6,1.7,-1.4,4.1c-.7,2.5,-1.6,5.5,-2.7,9c-1.1,3.5,-2.2,7.3,-3.3,11.3c-1.2,4,-2.2,7.7,-3.2,11.1c-.9,3.4,-1.6,6.3,-2.1,8.6c-.5,2.3,-.6,3.4,-.3,3.4c.8,.1,1.8,-.5,2.9,-1.6c1.1,-1.2,2.3,-2.7,3.5,-4.4c1.3,-1.8,2.5,-3.7,3.8,-5.7c1.2,-2,2.3,-3.9,3.3,-5.7c1,-1.7,1.8,-3.2,2.4,-4.4c.6,-1.1,1,-1.7,1.1,-1.7c0,0,.2,0,.6,0c.3,.1,.6,.1,1,.1c.4,.1,.7,.2,.9,.3c.3,.1,.4,.2,.3,.5c0,.1,-.4,.9,-1.2,2.5c-.8,1.5,-1.8,3.4,-3.1,5.6c-1.2,2.2,-2.7,4.6,-4.4,7.2c-1.7,2.6,-3.5,5,-5.4,7.2c-1.8,2.1,-3.7,3.9,-5.7,5.3c-1.9,1.4,-3.7,2.1,-5.5,2c-.9,0,-1.7,-.2,-2.2,-.6c-.6,-.4,-1,-.9,-1.4,-1.5c-.4,-.7,-.6,-1.4,-.7,-2.2c0,-.8,-.1,-1.6,-.2,-2.4c-1.4,1.7,-2.9,3.1,-4.4,4c-1.4,1,-2.8,1.6,-4.1,2.1c-1.3,.4,-2.5,.7,-3.4,.7c-1,0,-1.6,0,-2.1,-.1c-1,0,-2.3,-.4,-3.8,-1c-1.5,-.6,-2.9,-1.9,-4,-3.8c-1.1,-2,-1.7,-4.8,-1.9,-8.5c-.2,-3.7,.5,-8.8,2.2,-15.1c1.4,-5.5,3.1,-10.1,4.9,-13.9c1.8,-3.7,3.7,-6.8,5.6,-9.2c2,-2.4,3.9,-4.3,5.8,-5.7c2,-1.3,3.7,-2.3,5.4,-2.9c1.6,-.5,3,-.9,4.2,-1c1.2,-.1,2,-.2,2.5,-.2c1.1,0,2,.3,2.7,.8c.7,.4,1.3,1,1.9,1.7c.5,.7,.9,1.4,1.2,2.3c.2,.8,.4,1.5,.6,2.2c.6,-1.8,1,-3.2,1.4,-4.3c.4,-1,.7,-1.6,.9,-1.7Zm-24.9,55.1c1.4,0,2.7,-.4,3.8,-1.1c1.1,-.6,2.1,-1.5,3,-2.5c.8,-1,1.6,-2,2.3,-3.1c.6,-1.2,1.3,-2.3,1.9,-3.3c.4,-1.9,1,-4.1,1.8,-6.7c.7,-2.6,1.5,-5.3,2.4,-8.2c.8,-2.9,1.7,-5.8,2.6,-8.7c.8,-2.9,1.7,-5.7,2.5,-8.3c-.2,.1,-.2,-.1,0,-.7c.3,-.9,.3,-1.9,.2,-3c-.2,-1.1,-.4,-2,-.9,-2.9c-.4,-.9,-1,-1.6,-1.6,-2.2c-.7,-.6,-1.4,-.9,-2.1,-.9c-1.4,0,-2.7,.6,-4.1,1.6c-1.3,1.1,-2.5,2.5,-3.8,4.2c-1.2,1.7,-2.4,3.6,-3.4,5.7c-1.1,2,-2,4.1,-2.9,6.2c-.8,2,-1.6,3.9,-2.2,5.6c-.6,1.8,-1,3.2,-1.3,4.2c-.6,1.5,-1.1,3.5,-1.7,6.2c-.6,2.7,-.9,5.4,-1.1,8.1c-.1,2.7,.1,5.1,.7,7c.7,1.9,2,2.9,3.9,2.8Z" class="g5_1"/>
<path d="M370.9,502c.5,0,1.2,0,2.2,.1c1,.1,1.9,.3,2.8,.7c.9,.4,1.6,.9,2.1,1.7c.6,.8,.7,1.8,.3,3.1c-.1,.3,-.6,1.7,-1.4,4.1c-.7,2.5,-1.6,5.5,-2.7,9c-1.1,3.5,-2.2,7.3,-3.4,11.3c-1.2,4,-2.3,7.7,-3.2,11.1c-.9,3.4,-1.6,6.3,-2.1,8.6c-.5,2.3,-.6,3.4,-.2,3.4c.8,.1,1.7,-.5,2.9,-1.6c1.1,-1.2,2.3,-2.7,3.5,-4.4c1.3,-1.8,2.5,-3.7,3.7,-5.7c1.2,-2,2.3,-3.9,3.3,-5.7c1.1,-1.7,1.9,-3.2,2.5,-4.4c.6,-1.1,1,-1.7,1,-1.7c.1,0,.3,0,.6,0c.4,.1,.7,.1,1.1,.1c.4,.1,.7,.2,.9,.3c.3,.1,.4,.2,.3,.5c0,.1,-.4,.9,-1.2,2.5c-.8,1.5,-1.8,3.4,-3.1,5.6c-1.2,2.2,-2.7,4.6,-4.4,7.2c-1.7,2.6,-3.5,5,-5.4,7.2c-1.8,2.1,-3.7,3.9,-5.7,5.3c-1.9,1.4,-3.7,2.1,-5.5,2c-1.2,0,-2.2,-.3,-2.8,-1.1c-.7,-.8,-1.1,-1.7,-1.4,-2.7c-.2,-1,-.3,-2.1,-.2,-3.2c0,-1.1,.1,-1.9,.1,-2.6c0,-.4,.4,-2,1.2,-4.6c.8,-2.7,1.6,-5.9,2.7,-9.7c1,-3.7,2.1,-7.7,3.4,-12c1.3,-4.2,2.5,-8.1,3.6,-11.7c1.2,-3.6,2.1,-6.6,2.9,-9c.8,-2.4,1.3,-3.6,1.6,-3.7Zm2.3,-17.4c.5,-2.5,1.7,-4.6,3.5,-6.3c1.8,-1.8,3.6,-2.7,5.5,-2.7c1.9,0,3.3,.9,4.2,2.7c.9,1.7,1,3.8,.4,6.3c-.5,2.5,-1.7,4.6,-3.5,6.4c-1.7,1.7,-3.5,2.6,-5.4,2.6c-1.9,0,-3.3,-.9,-4.2,-2.6c-1,-1.8,-1.1,-3.9,-.5,-6.4Z" class="g4_1"/>
<path d="M370.9,502c.5,0,1.2,0,2.2,.1c1,.1,1.9,.3,2.8,.7c.9,.4,1.6,.9,2.1,1.7c.6,.8,.7,1.8,.3,3.1c-.1,.3,-.6,1.7,-1.4,4.1c-.7,2.5,-1.6,5.5,-2.7,9c-1.1,3.5,-2.2,7.3,-3.4,11.3c-1.2,4,-2.3,7.7,-3.2,11.1c-.9,3.4,-1.6,6.3,-2.1,8.6c-.5,2.3,-.6,3.4,-.2,3.4c.8,.1,1.7,-.5,2.9,-1.6c1.1,-1.2,2.3,-2.7,3.5,-4.4c1.3,-1.8,2.5,-3.7,3.7,-5.7c1.2,-2,2.3,-3.9,3.3,-5.7c1.1,-1.7,1.9,-3.2,2.5,-4.4c.6,-1.1,1,-1.7,1,-1.7c.1,0,.3,0,.6,0c.4,.1,.7,.1,1.1,.1c.4,.1,.7,.2,.9,.3c.3,.1,.4,.2,.3,.5c0,.1,-.4,.9,-1.2,2.5c-.8,1.5,-1.8,3.4,-3.1,5.6c-1.2,2.2,-2.7,4.6,-4.4,7.2c-1.7,2.6,-3.5,5,-5.4,7.2c-1.8,2.1,-3.7,3.9,-5.7,5.3c-1.9,1.4,-3.7,2.1,-5.5,2c-1.2,0,-2.2,-.3,-2.8,-1.1c-.7,-.8,-1.1,-1.7,-1.4,-2.7c-.2,-1,-.3,-2.1,-.2,-3.2c0,-1.1,.1,-1.9,.1,-2.6c0,-.4,.4,-2,1.2,-4.6c.8,-2.7,1.6,-5.9,2.7,-9.7c1,-3.7,2.1,-7.7,3.4,-12c1.3,-4.2,2.5,-8.1,3.6,-11.7c1.2,-3.6,2.1,-6.6,2.9,-9c.8,-2.4,1.3,-3.6,1.6,-3.7Zm2.3,-17.4c.5,-2.5,1.7,-4.6,3.5,-6.3c1.8,-1.8,3.6,-2.7,5.5,-2.7c1.9,0,3.3,.9,4.2,2.7c.9,1.7,1,3.8,.4,6.3c-.5,2.5,-1.7,4.6,-3.5,6.4c-1.7,1.7,-3.5,2.6,-5.4,2.6c-1.9,0,-3.3,-.9,-4.2,-2.6c-1,-1.8,-1.1,-3.9,-.5,-6.4Z" class="g6_1"/>
<path d="M394.3,515.9c1.1,-1.8,2.3,-3.6,3.8,-5.4c1.4,-1.8,3,-3.4,4.7,-4.8c1.7,-1.4,3.5,-2.6,5.4,-3.5c2,-.8,4,-1.2,6.1,-1.2c2.6,.1,4.5,1,5.7,2.6c1.2,1.7,1.8,3.8,2,6.4c.1,2.6,-.1,5.6,-.8,8.9c-.6,3.4,-1.5,6.8,-2.5,10.2c-1,3.5,-2.1,6.9,-3.3,10.3c-1.2,3.3,-2.1,6.3,-2.9,8.9c-.8,2.7,-1.4,4.8,-1.7,6.5c-.3,1.7,0,2.5,.8,2.6c1.4,.2,2.9,-.3,4.5,-1.5c1.7,-1.2,3.2,-2.7,4.7,-4.7c1.5,-1.9,3,-4,4.4,-6.3c1.4,-2.2,2.7,-4.4,3.8,-6.4c1.2,-2,2.1,-3.6,2.8,-4.9c.7,-1.4,1.1,-2,1.3,-2c.3,0,.8,0,1.7,.1c.9,.2,1.3,.4,1.2,.8c-.3,1.1,-.9,2.6,-1.8,4.6c-.8,1.9,-2,4.1,-3.4,6.4c-1.4,2.3,-3.1,4.7,-4.9,7.1c-1.8,2.4,-3.8,4.6,-5.9,6.5c-2.1,1.9,-4.3,3.4,-6.6,4.5c-2.2,1.2,-4.5,1.6,-6.9,1.3c-2,-.2,-3.3,-1.2,-4,-3c-.7,-1.7,-.8,-3.9,-.5,-6.6c.3,-2.7,.9,-5.8,1.9,-9.2c.9,-3.4,1.9,-6.8,3,-10.2c1.1,-3.4,2.1,-6.8,2.9,-10c.9,-3.3,1.4,-6.1,1.6,-8.6c.2,-2.4,-.1,-4.3,-.8,-5.7c-.6,-1.3,-2.1,-1.8,-4.4,-1.6c-1.7,.3,-3.5,1.5,-5.2,3.6c-1.7,2,-3.3,4.3,-4.7,6.9c-1.4,2.6,-2.7,5.1,-3.8,7.6c-1.1,2.5,-1.9,4.3,-2.5,5.4c-1.7,6.6,-3.2,12.5,-4.4,17.5c-1.2,5,-2,9.1,-2.3,12.1c0,.5,-.7,.8,-1.8,1c-1.2,.2,-2.5,.3,-3.9,.2c-1.3,-.1,-2.5,-.5,-3.4,-1.2c-.9,-.6,-1.2,-1.6,-.7,-2.9c.1,-.2,.6,-2.1,1.7,-5.7c1,-3.6,2.3,-8.2,3.9,-13.8H379c1.8,-6.4,3.2,-11.4,4.2,-15.3c1.1,-3.8,1.8,-6.9,2.3,-9.3c.5,-2.4,.9,-4.4,1.2,-6.1c.2,-1.6,.5,-3.3,.7,-5.3c0,-.5,.6,-.8,1.7,-1c1.2,-.2,2.4,-.3,3.8,-.2c1.3,.1,2.4,.5,3.4,1.2c1,.6,1.3,1.6,.8,2.9Z" class="g4_1"/>
<path d="M394.3,515.9c1.1,-1.8,2.3,-3.6,3.8,-5.4c1.4,-1.8,3,-3.4,4.7,-4.8c1.7,-1.4,3.5,-2.6,5.4,-3.5c2,-.8,4,-1.2,6.1,-1.2c2.6,.1,4.5,1,5.7,2.6c1.2,1.7,1.8,3.8,2,6.4c.1,2.6,-.1,5.6,-.8,8.9c-.6,3.4,-1.5,6.8,-2.5,10.2c-1,3.5,-2.1,6.9,-3.3,10.3c-1.2,3.3,-2.1,6.3,-2.9,8.9c-.8,2.7,-1.4,4.8,-1.7,6.5c-.3,1.7,0,2.5,.8,2.6c1.4,.2,2.9,-.3,4.5,-1.5c1.7,-1.2,3.2,-2.7,4.7,-4.7c1.5,-1.9,3,-4,4.4,-6.3c1.4,-2.2,2.7,-4.4,3.8,-6.4c1.2,-2,2.1,-3.6,2.8,-4.9c.7,-1.4,1.1,-2,1.3,-2c.3,0,.8,0,1.7,.1c.9,.2,1.3,.4,1.2,.8c-.3,1.1,-.9,2.6,-1.8,4.6c-.8,1.9,-2,4.1,-3.4,6.4c-1.4,2.3,-3.1,4.7,-4.9,7.1c-1.8,2.4,-3.8,4.6,-5.9,6.5c-2.1,1.9,-4.3,3.4,-6.6,4.5c-2.2,1.2,-4.5,1.6,-6.9,1.3c-2,-.2,-3.3,-1.2,-4,-3c-.7,-1.7,-.8,-3.9,-.5,-6.6c.3,-2.7,.9,-5.8,1.9,-9.2c.9,-3.4,1.9,-6.8,3,-10.2c1.1,-3.4,2.1,-6.8,2.9,-10c.9,-3.3,1.4,-6.1,1.6,-8.6c.2,-2.4,-.1,-4.3,-.8,-5.7c-.6,-1.3,-2.1,-1.8,-4.4,-1.6c-1.7,.3,-3.5,1.5,-5.2,3.6c-1.7,2,-3.3,4.3,-4.7,6.9c-1.4,2.6,-2.7,5.1,-3.8,7.6c-1.1,2.5,-1.9,4.3,-2.5,5.4c-1.7,6.6,-3.2,12.5,-4.4,17.5c-1.2,5,-2,9.1,-2.3,12.1c0,.5,-.7,.8,-1.8,1c-1.2,.2,-2.5,.3,-3.9,.2c-1.3,-.1,-2.5,-.5,-3.4,-1.2c-.9,-.6,-1.2,-1.6,-.7,-2.9c.1,-.2,.6,-2.1,1.7,-5.7c1,-3.6,2.3,-8.2,3.9,-13.8H379c1.8,-6.4,3.2,-11.4,4.2,-15.3c1.1,-3.8,1.8,-6.9,2.3,-9.3c.5,-2.4,.9,-4.4,1.2,-6.1c.2,-1.6,.5,-3.3,.7,-5.3c0,-.5,.6,-.8,1.7,-1c1.2,-.2,2.4,-.3,3.8,-.2c1.3,.1,2.4,.5,3.4,1.2c1,.6,1.3,1.6,.8,2.9Z" class="g7_1"/>
<path d="M457.9,501.8c1.2,-.2,2.7,-.2,4.5,.2c1.8,.3,3.2,.7,4.1,1.2c1.3,.9,2.3,2.4,2.9,4.6c.6,2.1,.9,4.7,.8,7.6c0,3,-.4,6.2,-1,9.7c-.7,3.4,-1.6,6.9,-2.8,10.4c-1.2,3.4,-2.7,6.8,-4.4,10.1c-1.7,3.3,-3.6,6.2,-5.8,8.6c3.1,-2.4,6.4,-5.7,10,-9.8c1,-1.2,2,-2.5,3,-4c.9,-1.5,1.8,-2.9,2.5,-4.2c.8,-1.3,1.4,-2.4,1.9,-3.3c.5,-.9,.7,-1.3,.8,-1.3c.1,0,.3,0,.6,0c.3,.1,.7,.1,1,.1c.4,.1,.7,.2,1,.3c.2,.1,.3,.2,.3,.5c0,0,-.2,.4,-.5,1.1c-.4,.6,-.8,1.5,-1.4,2.5c-.6,1.1,-1.3,2.2,-2,3.5c-.8,1.2,-1.7,2.4,-2.6,3.6c-5,6.3,-9.5,10.9,-13.5,13.8c-3.9,2.8,-7.9,4.5,-12,5.1c-1.9,.5,-3.7,.7,-5.4,.5c-1.4,-.2,-2.7,-.7,-3.7,-1.5c-1,-.9,-1.9,-1.8,-2.5,-2.8c-.2,.8,-.3,1.3,-.2,1.4c0,1,-.4,1.6,-1.3,1.9c-.8,.3,-1.8,.4,-2.8,.3c-1.1,-.1,-2.1,-.3,-3.1,-.6c-1,-.3,-1.5,-.7,-1.7,-1c-.2,-.3,0,-2,.7,-4.9c.7,-3,1.7,-6.8,3,-11.5c1.2,-4.7,2.7,-10.1,4.5,-16c1.7,-6,3.4,-12.2,5.2,-18.4c1.8,-6.3,3.6,-12.5,5.3,-18.6c1.8,-6.1,3.3,-11.6,4.7,-16.6c1.4,-5,2.5,-9.2,3.4,-12.6c.9,-3.4,1.4,-5.5,1.4,-6.3c.1,-1.2,1.1,-1.9,2.9,-2.3c.4,-.1,1.1,-.1,2.1,-.1c1,.1,2,.2,2.9,.4c.9,.2,1.6,.6,2.2,1c.6,.5,.7,1,.3,1.8c-.4,.8,-1.2,3,-2.3,6.3c-1.1,3.4,-2.4,7.5,-3.9,12.4c-1.5,4.9,-3.1,10.3,-4.8,16.2c-1.8,6,-3.5,12,-5.3,18.2c2.4,-2.7,4.6,-4.6,6.6,-5.7c2,-1,3.5,-1.6,4.4,-1.8ZM444,519.9c-1.8,6,-3.3,11.5,-4.7,16.7c-1.4,5.1,-2.6,9.5,-3.6,13.3c0,1.6,.2,2.9,.6,4c.4,1,.9,1.9,1.4,2.5c.6,.6,1.3,1,2,1.3c.7,.2,1.4,.3,2.1,.3c1.4,-.1,2.8,-.9,4.4,-2.5c1.5,-1.6,3,-3.6,4.3,-6.1c1.4,-2.5,2.7,-5.3,4,-8.5c1.2,-3.1,2.3,-6.3,3.2,-9.6c.9,-3.2,1.7,-6.4,2.2,-9.5c.6,-3.1,.9,-5.9,.9,-8.2c.1,-2.4,-.1,-4.3,-.6,-5.6c-.5,-1.4,-1.4,-2,-2.5,-1.8c-1.2,.2,-2.4,.9,-3.8,2c-1.3,1.1,-2.6,2.3,-3.8,3.7c-1.2,1.5,-2.4,2.9,-3.5,4.4c-1.1,1.4,-2,2.6,-2.6,3.6Z" class="g4_1"/>
<path d="M457.9,501.8c1.2,-.2,2.7,-.2,4.5,.2c1.8,.3,3.2,.7,4.1,1.2c1.3,.9,2.3,2.4,2.9,4.6c.6,2.1,.9,4.7,.8,7.6c0,3,-.4,6.2,-1,9.7c-.7,3.4,-1.6,6.9,-2.8,10.4c-1.2,3.4,-2.7,6.8,-4.4,10.1c-1.7,3.3,-3.6,6.2,-5.8,8.6c3.1,-2.4,6.4,-5.7,10,-9.8c1,-1.2,2,-2.5,3,-4c.9,-1.5,1.8,-2.9,2.5,-4.2c.8,-1.3,1.4,-2.4,1.9,-3.3c.5,-.9,.7,-1.3,.8,-1.3c.1,0,.3,0,.6,0c.3,.1,.7,.1,1,.1c.4,.1,.7,.2,1,.3c.2,.1,.3,.2,.3,.5c0,0,-.2,.4,-.5,1.1c-.4,.6,-.8,1.5,-1.4,2.5c-.6,1.1,-1.3,2.2,-2,3.5c-.8,1.2,-1.7,2.4,-2.6,3.6c-5,6.3,-9.5,10.9,-13.5,13.8c-3.9,2.8,-7.9,4.5,-12,5.1c-1.9,.5,-3.7,.7,-5.4,.5c-1.4,-.2,-2.7,-.7,-3.7,-1.5c-1,-.9,-1.9,-1.8,-2.5,-2.8c-.2,.8,-.3,1.3,-.2,1.4c0,1,-.4,1.6,-1.3,1.9c-.8,.3,-1.8,.4,-2.8,.3c-1.1,-.1,-2.1,-.3,-3.1,-.6c-1,-.3,-1.5,-.7,-1.7,-1c-.2,-.3,0,-2,.7,-4.9c.7,-3,1.7,-6.8,3,-11.5c1.2,-4.7,2.7,-10.1,4.5,-16c1.7,-6,3.4,-12.2,5.2,-18.4c1.8,-6.3,3.6,-12.5,5.3,-18.6c1.8,-6.1,3.3,-11.6,4.7,-16.6c1.4,-5,2.5,-9.2,3.4,-12.6c.9,-3.4,1.4,-5.5,1.4,-6.3c.1,-1.2,1.1,-1.9,2.9,-2.3c.4,-.1,1.1,-.1,2.1,-.1c1,.1,2,.2,2.9,.4c.9,.2,1.6,.6,2.2,1c.6,.5,.7,1,.3,1.8c-.4,.8,-1.2,3,-2.3,6.3c-1.1,3.4,-2.4,7.5,-3.9,12.4c-1.5,4.9,-3.1,10.3,-4.8,16.2c-1.8,6,-3.5,12,-5.3,18.2c2.4,-2.7,4.6,-4.6,6.6,-5.7c2,-1,3.5,-1.6,4.4,-1.8ZM444,519.9c-1.8,6,-3.3,11.5,-4.7,16.7c-1.4,5.1,-2.6,9.5,-3.6,13.3c0,1.6,.2,2.9,.6,4c.4,1,.9,1.9,1.4,2.5c.6,.6,1.3,1,2,1.3c.7,.2,1.4,.3,2.1,.3c1.4,-.1,2.8,-.9,4.4,-2.5c1.5,-1.6,3,-3.6,4.3,-6.1c1.4,-2.5,2.7,-5.3,4,-8.5c1.2,-3.1,2.3,-6.3,3.2,-9.6c.9,-3.2,1.7,-6.4,2.2,-9.5c.6,-3.1,.9,-5.9,.9,-8.2c.1,-2.4,-.1,-4.3,-.6,-5.6c-.5,-1.4,-1.4,-2,-2.5,-1.8c-1.2,.2,-2.4,.9,-3.8,2c-1.3,1.1,-2.6,2.3,-3.8,3.7c-1.2,1.5,-2.4,2.9,-3.5,4.4c-1.1,1.4,-2,2.6,-2.6,3.6Z" class="g8_1"/>
<path d="M480.9,513c.3,-.5,.8,-.8,1.5,-.9c1.5,-3.3,3.5,-6.1,6.1,-8.5c2.6,-2.4,6,-3.8,10.2,-4.4c3.6,-.5,6.3,.4,8.2,2.7c1.9,2.3,3.1,5.4,3.6,9.3c.4,3.9,.3,8.3,-.5,13.2c-.7,4.9,-2,9.8,-3.7,14.5c3.8,-1.9,7.7,-5,11.6,-9.4c.5,-.6,1.1,-.9,1.8,-1.1c.7,-.1,1.3,-.1,1.8,.1c.6,.1,.9,.5,1.1,.9c.1,.5,-.1,1.1,-.7,1.6c-3.7,4,-7,7,-9.9,9.1c-3,2.1,-5.7,3.7,-8.3,4.6c-1.3,2.9,-2.8,5.5,-4.4,7.9c-1.7,2.4,-3.4,4.4,-5.2,6.1c-1.9,1.7,-3.9,3,-5.9,3.9c-2,.8,-4.2,1.1,-6.3,.8c-3.7,-.4,-6.4,-1.7,-8.3,-4c-1.8,-2.2,-3,-4.9,-3.5,-8.1c-.5,-3.1,-.4,-6.6,.1,-10.4c.6,-3.8,1.5,-7.5,2.6,-11.1c1.2,-3.5,2.4,-6.8,3.9,-9.8c1.5,-3,2.9,-5.3,4.2,-7Zm4.1,13.7c.5,4.6,1.9,8.1,4.2,10.5c2.3,2.5,5.2,3.7,8.7,3.8c1.4,-3.9,2.5,-8.1,3.4,-12.4c.9,-4.3,1.4,-8.2,1.5,-11.8c.1,-3.7,-.2,-6.7,-1,-9.2c-.8,-2.5,-2.2,-3.9,-4.2,-4.3c-1.1,-.1,-2.2,.1,-3.2,.6c-1.1,.6,-2.1,1.3,-3,2.2c-.9,.9,-1.7,2,-2.4,3.2c-.8,1.1,-1.4,2.3,-2,3.3c1.3,.6,2.4,1.3,3.4,2c.9,.7,1.2,1.3,.9,1.8c-1.2,1.3,-2.3,2.8,-3.4,4.6c-1,1.7,-2,3.6,-2.9,5.7Zm11,19.4c-3.4,0,-6.3,-.9,-8.8,-2.5c-2.6,-1.7,-4.5,-4,-5.8,-7.1c-.9,3.2,-1.6,6.3,-2,9.3c-.4,3,-.5,5.6,-.2,7.8c.3,2.2,1,3.8,2.2,4.9c1.1,1.1,2.7,1.3,4.7,.7c1.7,-.5,3.4,-2,5.1,-4.3c1.7,-2.3,3.3,-5.3,4.8,-8.8Zm48,-28.6c.1,-.6,.7,-.9,1.8,-.9c1.1,0,2.3,.2,3.5,.6c1.3,.5,2.5,1.1,3.5,2c1.1,.9,1.6,1.9,1.6,3.1c-.1,.6,-.4,1.9,-1,3.9c-.5,2.1,-1.2,4.4,-1.9,7.1c-.8,2.6,-1.5,5.5,-2.2,8.4c-.7,3,-1.2,5.7,-1.4,8.1c-.3,2.5,-.3,4.5,0,6.1c.2,1.6,1,2.4,2.4,2.3c1.2,0,2.5,-.8,4,-2.3c1.4,-1.6,2.8,-3.5,4.2,-5.9c1.4,-2.4,2.8,-5.1,4.2,-8.1c1.4,-2.9,2.7,-5.9,3.9,-8.8c-1.7,-.6,-2.9,-2,-3.6,-4c-.7,-2.1,-1,-4.4,-1,-7.1c.1,-2.7,.4,-5.4,1.2,-8.3c.7,-2.9,1.7,-5.6,2.9,-8c1.2,-2.4,2.6,-4.5,4.2,-6.1c1.7,-1.6,3.5,-2.4,5.5,-2.5c1.4,-.1,2.5,.3,3.4,1.2c.8,.8,1.2,2.3,1.2,4.5c-.1,.5,-.3,1.6,-.7,3.2c-.4,1.6,-.9,3.6,-1.5,6c-.7,2.4,-1.5,5.1,-2.4,8.1c-.9,3,-1.9,6,-3.1,9.2c2.4,-.1,4.7,-.9,6.9,-2.4c2.2,-1.6,4.2,-3.3,6,-5.1c1.7,-1.9,3.2,-3.6,4.4,-5.3c1.2,-1.6,1.9,-2.6,2.3,-3c.9,-.8,1.5,-.9,1.9,-.4c.4,.5,.5,1.4,.2,2.8c-.2,.7,-1,2,-2.4,3.9c-1.3,1.9,-3.1,3.9,-5.2,5.9c-2.1,2,-4.5,3.9,-7.3,5.5c-2.8,1.6,-5.6,2.5,-8.6,2.6c-1.3,3.5,-2.9,7,-4.5,10.4c-1.7,3.3,-3.5,6.3,-5.4,9c-1.9,2.7,-3.9,4.8,-6.1,6.5c-2.1,1.7,-4.3,2.6,-6.5,2.6c-2.1,.2,-3.9,0,-5.4,-.6c-1.4,-.5,-2.6,-1.3,-3.4,-2.4c-.8,-1,-1.3,-2.3,-1.6,-3.8c-.3,-1.5,-.4,-3.2,-.3,-5c-2.2,3.4,-4.5,6.2,-6.9,8.4c-2.4,2.1,-4.9,3.3,-7.6,3.4c-3.4,.3,-5.8,-.8,-7.3,-3c-1.5,-2.3,-2.3,-5.3,-2.4,-9c-.2,-3.7,.2,-7.9,1,-12.6c.8,-4.7,1.7,-9.3,2.8,-13.9c1,-4.6,2,-8.9,3,-13c.9,-4,1.5,-7.3,1.7,-9.8c0,-.5,.6,-.7,1.7,-.8c1.1,0,2.4,.2,3.6,.6c1.3,.5,2.5,1.1,3.5,2c1.1,.9,1.6,1.9,1.6,3.1c-.1,.5,-.3,1.6,-.7,3.4c-.5,1.7,-1,3.9,-1.7,6.4c-.6,2.6,-1.4,5.4,-2.1,8.5c-.8,3.1,-1.5,6.2,-2.2,9.4c-.7,3.1,-1.3,6.2,-1.8,9.1c-.5,3,-.9,5.7,-1,8c-.1,2.3,-.1,4.1,.3,5.5c.3,1.3,.9,2,1.9,2c1.2,-.1,2.4,-.7,3.6,-2c1.2,-1.2,2.5,-2.9,3.8,-4.9c1.3,-2.1,2.6,-4.4,3.9,-6.9c1.3,-2.6,2.5,-5.2,3.6,-7.8c.8,-3.5,1.7,-6.9,2.5,-10.3c.8,-3.3,1.3,-6.3,1.5,-8.8Zm30.6,-16c-.8,.1,-1.6,.8,-2.4,1.9c-.8,1.1,-1.6,2.6,-2.3,4.3c-.8,1.8,-1.4,3.7,-1.9,5.7c-.5,2.1,-.9,4,-1,6c-.2,1.9,-.2,3.7,0,5.3c.1,1.6,.6,2.8,1.4,3.5c1.3,-3.3,2.3,-6.1,3,-8.5c.8,-2.4,1.2,-3.7,1.3,-4.1c.1,-.6,.5,-1.7,1,-3.3c.6,-1.6,1.1,-3.2,1.5,-4.9c.5,-1.6,.7,-3,.7,-4.3c0,-1.2,-.5,-1.8,-1.3,-1.6Z" class="g4_1"/>
<path d="M480.9,513c.3,-.5,.8,-.8,1.5,-.9c1.5,-3.3,3.5,-6.1,6.1,-8.5c2.6,-2.4,6,-3.8,10.2,-4.4c3.6,-.5,6.3,.4,8.2,2.7c1.9,2.3,3.1,5.4,3.6,9.3c.4,3.9,.3,8.3,-.5,13.2c-.7,4.9,-2,9.8,-3.7,14.5c3.8,-1.9,7.7,-5,11.6,-9.4c.5,-.6,1.1,-.9,1.8,-1.1c.7,-.1,1.3,-.1,1.8,.1c.6,.1,.9,.5,1.1,.9c.1,.5,-.1,1.1,-.7,1.6c-3.7,4,-7,7,-9.9,9.1c-3,2.1,-5.7,3.7,-8.3,4.6c-1.3,2.9,-2.8,5.5,-4.4,7.9c-1.7,2.4,-3.4,4.4,-5.2,6.1c-1.9,1.7,-3.9,3,-5.9,3.9c-2,.8,-4.2,1.1,-6.3,.8c-3.7,-.4,-6.4,-1.7,-8.3,-4c-1.8,-2.2,-3,-4.9,-3.5,-8.1c-.5,-3.1,-.4,-6.6,.1,-10.4c.6,-3.8,1.5,-7.5,2.6,-11.1c1.2,-3.5,2.4,-6.8,3.9,-9.8c1.5,-3,2.9,-5.3,4.2,-7Zm4.1,13.7c.5,4.6,1.9,8.1,4.2,10.5c2.3,2.5,5.2,3.7,8.7,3.8c1.4,-3.9,2.5,-8.1,3.4,-12.4c.9,-4.3,1.4,-8.2,1.5,-11.8c.1,-3.7,-.2,-6.7,-1,-9.2c-.8,-2.5,-2.2,-3.9,-4.2,-4.3c-1.1,-.1,-2.2,.1,-3.2,.6c-1.1,.6,-2.1,1.3,-3,2.2c-.9,.9,-1.7,2,-2.4,3.2c-.8,1.1,-1.4,2.3,-2,3.3c1.3,.6,2.4,1.3,3.4,2c.9,.7,1.2,1.3,.9,1.8c-1.2,1.3,-2.3,2.8,-3.4,4.6c-1,1.7,-2,3.6,-2.9,5.7Zm11,19.4c-3.4,0,-6.3,-.9,-8.8,-2.5c-2.6,-1.7,-4.5,-4,-5.8,-7.1c-.9,3.2,-1.6,6.3,-2,9.3c-.4,3,-.5,5.6,-.2,7.8c.3,2.2,1,3.8,2.2,4.9c1.1,1.1,2.7,1.3,4.7,.7c1.7,-.5,3.4,-2,5.1,-4.3c1.7,-2.3,3.3,-5.3,4.8,-8.8Zm48,-28.6c.1,-.6,.7,-.9,1.8,-.9c1.1,0,2.3,.2,3.5,.6c1.3,.5,2.5,1.1,3.5,2c1.1,.9,1.6,1.9,1.6,3.1c-.1,.6,-.4,1.9,-1,3.9c-.5,2.1,-1.2,4.4,-1.9,7.1c-.8,2.6,-1.5,5.5,-2.2,8.4c-.7,3,-1.2,5.7,-1.4,8.1c-.3,2.5,-.3,4.5,0,6.1c.2,1.6,1,2.4,2.4,2.3c1.2,0,2.5,-.8,4,-2.3c1.4,-1.6,2.8,-3.5,4.2,-5.9c1.4,-2.4,2.8,-5.1,4.2,-8.1c1.4,-2.9,2.7,-5.9,3.9,-8.8c-1.7,-.6,-2.9,-2,-3.6,-4c-.7,-2.1,-1,-4.4,-1,-7.1c.1,-2.7,.4,-5.4,1.2,-8.3c.7,-2.9,1.7,-5.6,2.9,-8c1.2,-2.4,2.6,-4.5,4.2,-6.1c1.7,-1.6,3.5,-2.4,5.5,-2.5c1.4,-.1,2.5,.3,3.4,1.2c.8,.8,1.2,2.3,1.2,4.5c-.1,.5,-.3,1.6,-.7,3.2c-.4,1.6,-.9,3.6,-1.5,6c-.7,2.4,-1.5,5.1,-2.4,8.1c-.9,3,-1.9,6,-3.1,9.2c2.4,-.1,4.7,-.9,6.9,-2.4c2.2,-1.6,4.2,-3.3,6,-5.1c1.7,-1.9,3.2,-3.6,4.4,-5.3c1.2,-1.6,1.9,-2.6,2.3,-3c.9,-.8,1.5,-.9,1.9,-.4c.4,.5,.5,1.4,.2,2.8c-.2,.7,-1,2,-2.4,3.9c-1.3,1.9,-3.1,3.9,-5.2,5.9c-2.1,2,-4.5,3.9,-7.3,5.5c-2.8,1.6,-5.6,2.5,-8.6,2.6c-1.3,3.5,-2.9,7,-4.5,10.4c-1.7,3.3,-3.5,6.3,-5.4,9c-1.9,2.7,-3.9,4.8,-6.1,6.5c-2.1,1.7,-4.3,2.6,-6.5,2.6c-2.1,.2,-3.9,0,-5.4,-.6c-1.4,-.5,-2.6,-1.3,-3.4,-2.4c-.8,-1,-1.3,-2.3,-1.6,-3.8c-.3,-1.5,-.4,-3.2,-.3,-5c-2.2,3.4,-4.5,6.2,-6.9,8.4c-2.4,2.1,-4.9,3.3,-7.6,3.4c-3.4,.3,-5.8,-.8,-7.3,-3c-1.5,-2.3,-2.3,-5.3,-2.4,-9c-.2,-3.7,.2,-7.9,1,-12.6c.8,-4.7,1.7,-9.3,2.8,-13.9c1,-4.6,2,-8.9,3,-13c.9,-4,1.5,-7.3,1.7,-9.8c0,-.5,.6,-.7,1.7,-.8c1.1,0,2.4,.2,3.6,.6c1.3,.5,2.5,1.1,3.5,2c1.1,.9,1.6,1.9,1.6,3.1c-.1,.5,-.3,1.6,-.7,3.4c-.5,1.7,-1,3.9,-1.7,6.4c-.6,2.6,-1.4,5.4,-2.1,8.5c-.8,3.1,-1.5,6.2,-2.2,9.4c-.7,3.1,-1.3,6.2,-1.8,9.1c-.5,3,-.9,5.7,-1,8c-.1,2.3,-.1,4.1,.3,5.5c.3,1.3,.9,2,1.9,2c1.2,-.1,2.4,-.7,3.6,-2c1.2,-1.2,2.5,-2.9,3.8,-4.9c1.3,-2.1,2.6,-4.4,3.9,-6.9c1.3,-2.6,2.5,-5.2,3.6,-7.8c.8,-3.5,1.7,-6.9,2.5,-10.3c.8,-3.3,1.3,-6.3,1.5,-8.8Zm30.6,-16c-.8,.1,-1.6,.8,-2.4,1.9c-.8,1.1,-1.6,2.6,-2.3,4.3c-.8,1.8,-1.4,3.7,-1.9,5.7c-.5,2.1,-.9,4,-1,6c-.2,1.9,-.2,3.7,0,5.3c.1,1.6,.6,2.8,1.4,3.5c1.3,-3.3,2.3,-6.1,3,-8.5c.8,-2.4,1.2,-3.7,1.3,-4.1c.1,-.6,.5,-1.7,1,-3.3c.6,-1.6,1.1,-3.2,1.5,-4.9c.5,-1.6,.7,-3,.7,-4.3c0,-1.2,-.5,-1.8,-1.3,-1.6Z" class="g9_1"/>
<path d="M517.1,358.3l-.7,-1.4l-.6,-1.1l-1.1,-1.9c-.7,-1.3,-1.4,-2.5,-2.1,-3.7c-1.5,-2.4,-2.9,-4.7,-4.4,-7c-3,-4.6,-6.1,-8.9,-9.3,-13.2c-6.5,-8.5,-13.6,-16.7,-21.2,-24.3c-7.6,-7.6,-15.8,-14.8,-24.5,-21.3C444.4,277.8,435,272,425.2,266.9c-2.5,-1.3,-4.9,-2.6,-7.5,-3.7l-7.6,-3.4c-2.6,-1.1,-5.2,-2,-7.8,-3c-2.6,-1,-5.3,-1.8,-8,-2.7l-4,-1.2l-2,-.6l-2,-.5l-8.2,-2c-2.7,-.6,-5.5,-1,-8.2,-1.5c-2.8,-.5,-5.5,-1,-8.3,-1.2c-22.1,-2.7,-44.4,-1.6,-65.5,2.7l-7.9,1.7l-3.9,.9l-3.9,1l-7.9,2.3c-2.6,.8,-5.2,1.7,-7.7,2.6c-5.2,1.6,-10.3,3.9,-15.4,6c-2.5,1.1,-4.9,2.4,-7.4,3.6l-3.8,1.8c-1.2,.6,-2.4,1.3,-3.6,2c-19.4,10.6,-37.1,24.7,-51.8,41.1C168,329.1,156.2,347.6,147.1,367c-4.5,9.8,-8.4,19.7,-11.6,29.9c-1.7,5.1,-3.1,10.3,-4.4,15.5c-.6,2.7,-1.2,5.3,-1.8,8.1c-.3,1.3,-.5,2.7,-.8,4.2l-.4,2.2l-.1,1.2l-.3,1.5L116,428.2l.2,-1.8l.3,-1.4l.4,-2.4c.2,-1.5,.5,-3,.8,-4.5c.6,-2.9,1.2,-5.7,1.9,-8.5c1.4,-5.5,2.9,-10.9,4.6,-16.3c3.4,-10.7,7.4,-21.1,12.2,-31.3c9.6,-20.3,22,-39.9,37.6,-57.2c15.5,-17.3,34.3,-32.3,54.9,-43.5c1.3,-.7,2.6,-1.4,3.9,-2.1l3.9,-1.9c2.7,-1.3,5.3,-2.6,7.9,-3.8c5.4,-2.2,10.7,-4.6,16.2,-6.4c2.8,-.9,5.5,-1.9,8.2,-2.8l8.3,-2.3l4.1,-1.1l4.2,-.9l8.2,-1.8c22.1,-4.5,45.8,-5.7,69.3,-2.9c2.9,.3,5.8,.8,8.8,1.3c2.9,.6,5.8,1,8.7,1.7l8.7,2.1l2.1,.5l2.2,.6l4.2,1.3c2.9,.9,5.7,1.8,8.5,2.9c2.8,1,5.6,2,8.3,3.1l8.1,3.6c2.7,1.2,5.3,2.6,7.9,3.9c10.5,5.5,20.4,11.7,29.7,18.6c9.2,6.9,17.8,14.4,25.8,22.5c8,8,15.4,16.5,22.2,25.4c3.4,4.5,6.7,9.1,9.8,13.9c1.6,2.4,3.1,4.8,4.6,7.4c.8,1.2,1.6,2.6,2.3,3.9l1.2,2.2l.7,1.2l.8,1.6Z" class="ga_1"/>
<path d="M506.5,363.6c-.8,-1.7,-1.4,-2.7,-2.1,-3.9c-.6,-1.2,-1.3,-2.3,-2,-3.4c-1.3,-2.3,-2.7,-4.5,-4.1,-6.6c-2.8,-4.3,-5.8,-8.5,-8.9,-12.6c-6.1,-8.1,-12.8,-15.8,-20.1,-23c-7.2,-7.3,-14.9,-14,-23.2,-20.2C437.8,287.7,429,282.2,419.8,277.4c-2.4,-1.2,-4.6,-2.5,-7.1,-3.5l-7.1,-3.2c-2.4,-.9,-4.9,-1.8,-7.4,-2.8c-2.4,-.9,-4.9,-1.7,-7.4,-2.5L387,264.3l-1.8,-.6l-1.9,-.4l-7.7,-1.9c-2.5,-.6,-5.1,-.9,-7.7,-1.4c-2.6,-.5,-5.1,-.9,-7.7,-1.2c-20.8,-2.5,-41.8,-1.5,-61.8,2.6l-7.5,1.6l-3.7,.8l-3.7,1.1L276,267c-2.4,.7,-4.9,1.6,-7.3,2.4c-4.9,1.6,-9.7,3.8,-14.5,5.7c-2.3,1.1,-4.6,2.3,-7,3.4l-3.5,1.7c-1.1,.6,-2.3,1.2,-3.4,1.9C222,292,205.4,305.2,191.6,320.7c-13.9,15.4,-25.1,32.9,-33.7,51.4c-4.4,9.2,-8.1,18.7,-11.1,28.4c-1.6,4.8,-3,9.8,-4.2,14.7c-.6,2.5,-1.2,5.1,-1.7,7.6c-.2,1.3,-.5,2.6,-.7,3.9l-.4,2l-.3,2.4l-11.8,-1.5l.3,-1.5l.1,-1.2l.4,-2.2c.3,-1.5,.5,-2.9,.8,-4.2c.6,-2.8,1.2,-5.4,1.8,-8.1c1.3,-5.2,2.7,-10.4,4.4,-15.5c3.2,-10.2,7.1,-20.1,11.6,-29.9c9.1,-19.4,20.9,-37.9,35.7,-54.2c14.7,-16.4,32.4,-30.5,51.8,-41.1c1.2,-.7,2.4,-1.4,3.6,-2l3.8,-1.8c2.5,-1.2,4.9,-2.5,7.4,-3.6c5.1,-2.1,10.2,-4.4,15.4,-6c2.5,-.9,5.1,-1.8,7.7,-2.6l7.9,-2.3l3.9,-1l3.9,-.9l7.9,-1.7c21.1,-4.3,43.4,-5.4,65.5,-2.7c2.8,.2,5.5,.7,8.3,1.2c2.7,.5,5.5,.9,8.2,1.5l8.2,2l2,.5l2,.6l4,1.2c2.7,.9,5.4,1.7,8,2.7c2.6,1,5.2,1.9,7.8,3l7.6,3.4c2.6,1.1,5,2.4,7.5,3.7c9.8,5.1,19.2,10.9,28,17.5c8.7,6.5,16.9,13.7,24.5,21.3c7.6,7.6,14.7,15.8,21.2,24.3c3.2,4.3,6.3,8.6,9.3,13.2c1.5,2.3,2.9,4.6,4.4,7c.7,1.2,1.4,2.4,2.1,3.7l1.1,1.9l.6,1.1l.7,1.4Z" class="gb_1"/>
<path d="M495.9,368.9c-1.2,-2.4,-2.4,-4.4,-3.6,-6.6c-1.3,-2.1,-2.6,-4.1,-3.9,-6.1c-2.6,-4.1,-5.5,-8,-8.4,-11.9c-5.9,-7.7,-12.2,-15,-19,-21.9c-6.9,-6.8,-14.2,-13.2,-22,-19c-7.7,-5.9,-16.1,-11,-24.7,-15.5c-2.2,-1.1,-4.3,-2.3,-6.5,-3.3l-6.7,-2.9c-2.3,-.9,-4.6,-1.8,-6.9,-2.6c-2.2,-.9,-4.6,-1.6,-6.9,-2.4l-3.5,-1l-1.8,-.6l-1.7,-.4L373.1,273c-2.3,-.6,-4.8,-.9,-7.2,-1.3c-2.4,-.5,-4.8,-.9,-7.2,-1.1c-19.4,-2.3,-39.1,-1.5,-58,2.4l-7.1,1.6l-3.6,.7l-3.5,1l-7,2c-2.3,.7,-4.6,1.5,-6.9,2.3c-4.6,1.5,-9,3.5,-13.6,5.3c-2.2,1,-4.3,2.1,-6.5,3.2l-3.3,1.6c-1.1,.5,-2.2,1.2,-3.2,1.7c-17.1,9.4,-32.6,21.7,-45.6,36.2c-13.1,14.4,-23.6,31,-31.8,48.5c-4.1,8.7,-7.7,17.7,-10.6,27c-1.5,4.6,-2.7,9.2,-3.9,13.9c-.6,2.4,-1.1,4.8,-1.6,7.2c-.5,2.4,-.9,4.7,-1.3,7.4l-11.7,-1.5l.3,-2.4l.4,-2c.2,-1.3,.5,-2.6,.7,-3.9c.5,-2.5,1.1,-5.1,1.7,-7.6c1.2,-4.9,2.6,-9.9,4.2,-14.7c3,-9.7,6.7,-19.2,11.1,-28.4c8.6,-18.5,19.8,-36,33.7,-51.4C205.4,305.2,222,292,240.3,282.1c1.1,-.7,2.3,-1.3,3.4,-1.9l3.5,-1.7c2.4,-1.1,4.7,-2.3,7,-3.4c4.8,-1.9,9.6,-4.1,14.5,-5.7c2.4,-.8,4.9,-1.7,7.3,-2.4l7.5,-2.1l3.7,-1.1l3.7,-.8l7.5,-1.6c20,-4.1,41,-5.1,61.8,-2.6c2.6,.3,5.1,.7,7.7,1.2c2.6,.5,5.2,.8,7.7,1.4l7.7,1.9l1.9,.4l1.8,.6l3.8,1.1c2.5,.8,5,1.6,7.4,2.5c2.5,1,5,1.9,7.4,2.8l7.1,3.2c2.5,1,4.7,2.3,7.1,3.5c9.2,4.8,18,10.3,26.3,16.5c8.3,6.2,16,12.9,23.2,20.2c7.3,7.2,14,14.9,20.1,23c3.1,4.1,6.1,8.3,8.9,12.6c1.4,2.1,2.8,4.3,4.1,6.6c.7,1.1,1.4,2.2,2,3.4c.7,1.2,1.3,2.2,2.1,3.9Z" class="gc_1"/>
<path d="M485.4,374.2c-1,-1.8,-2.1,-3.9,-3.3,-5.8c-1.1,-1.9,-2.4,-3.9,-3.6,-5.8c-2.5,-3.8,-5.2,-7.5,-7.9,-11.1C465,344.2,459,337.3,452.6,330.8c-6.5,-6.5,-13.4,-12.5,-20.7,-18c-7.2,-5.4,-15,-10.2,-23,-14.4c-2.1,-1,-4,-2.2,-6.1,-3l-6.2,-2.8c-2.2,-.8,-4.3,-1.6,-6.4,-2.4c-2.1,-.9,-4.3,-1.5,-6.4,-2.2l-3.3,-1l-1.6,-.5l-1.7,-.4l-6.6,-1.5c-2.2,-.6,-4.4,-.9,-6.6,-1.3c-2.3,-.4,-4.5,-.8,-6.8,-1c-18,-2.1,-36.3,-1.3,-54.3,2.3l-6.7,1.5l-3.3,.7l-3.3,.9l-6.6,1.9c-2.2,.7,-4.3,1.5,-6.5,2.2c-4.3,1.3,-8.4,3.3,-12.7,5c-2,.9,-4,1.9,-6.1,2.9l-3.1,1.5c-1,.5,-1.9,1.1,-2.9,1.6c-16,8.7,-30.4,20.2,-42.5,33.7c-12.2,13.5,-22.1,29,-29.9,45.6c-3.9,8.3,-7.2,16.8,-10,25.5c-1.4,4.4,-2.6,8.8,-3.7,13.2c-.5,2.3,-1,4.5,-1.5,6.7c-.4,2.2,-.8,4.5,-1.1,6.5l-11.8,-1.4c.4,-2.7,.8,-5,1.3,-7.4c.5,-2.4,1,-4.8,1.6,-7.2c1.2,-4.7,2.4,-9.3,3.9,-13.9c2.9,-9.3,6.5,-18.3,10.6,-27c8.2,-17.5,18.7,-34.1,31.8,-48.5c13,-14.5,28.5,-26.8,45.6,-36.2c1,-.5,2.1,-1.2,3.2,-1.7l3.3,-1.6c2.2,-1.1,4.3,-2.2,6.5,-3.2c4.6,-1.8,9,-3.8,13.6,-5.3c2.3,-.8,4.6,-1.6,6.9,-2.3l7,-2l3.5,-1l3.6,-.7l7.1,-1.6c18.9,-3.9,38.6,-4.7,58,-2.4c2.4,.2,4.8,.6,7.2,1.1c2.4,.4,4.9,.7,7.2,1.3l7.2,1.7l1.7,.4l1.8,.6l3.5,1c2.3,.8,4.7,1.5,6.9,2.4c2.3,.8,4.6,1.7,6.9,2.6l6.7,2.9c2.2,1,4.3,2.2,6.5,3.3c8.6,4.5,17,9.6,24.7,15.5c7.8,5.8,15.1,12.2,22,19c6.8,6.9,13.1,14.2,19,21.9c2.9,3.9,5.8,7.8,8.4,11.9c1.3,2,2.6,4,3.9,6.1c1.2,2.2,2.4,4.2,3.6,6.6Z" class="gd_1"/>
<path d="M474.8,379.5l-1.3,-2.3c-.5,-.9,-1,-1.8,-1.5,-2.7c-1.1,-1.8,-2.3,-3.6,-3.4,-5.4c-2.3,-3.6,-4.9,-7,-7.4,-10.5c-5.3,-6.8,-10.9,-13.4,-17,-19.5c-6.1,-6,-12.5,-11.7,-19.3,-16.8c-6.8,-5.1,-14,-9.5,-21.5,-13.4c-1.9,-.9,-3.7,-2,-5.6,-2.8L392,303.6c-1.9,-.8,-3.9,-1.5,-5.8,-2.3c-2,-.8,-4,-1.3,-6,-1.9l-3,-1l-1.4,-.4l-1.6,-.4l-6.1,-1.5c-2,-.5,-4.1,-.7,-6.1,-1.1c-2.1,-.4,-4.1,-.8,-6.2,-.9c-16.6,-2,-33.7,-1.3,-50.6,2.1l-6.3,1.4l-3.1,.7l-3.1,.9l-6.2,1.7c-2,.6,-4,1.4,-6,2c-4.1,1.3,-7.9,3.1,-11.8,4.7c-2,.8,-3.8,1.8,-5.8,2.7l-2.8,1.4c-.9,.5,-1.8,1,-2.8,1.5c-14.7,8.1,-28,18.6,-39.3,31.2c-11.3,12.6,-20.7,27.1,-28,42.7c-3.6,7.8,-6.8,15.9,-9.4,24.1c-1.3,4.1,-2.5,8.3,-3.5,12.4c-.5,2.1,-1,4.2,-1.4,6.2c-.2,1.1,-.4,2.1,-.6,3.1l-.2,1.4l-.2,1.2L163,434c.3,-2,.7,-4.3,1.1,-6.5c.5,-2.2,1,-4.4,1.5,-6.7c1.1,-4.4,2.3,-8.8,3.7,-13.2c2.8,-8.7,6.1,-17.2,10,-25.5C187.1,365.5,197,350,209.2,336.5c12.1,-13.5,26.5,-25,42.5,-33.7c1,-.5,1.9,-1.1,2.9,-1.6l3.1,-1.5c2.1,-1,4.1,-2,6.1,-2.9c4.3,-1.7,8.4,-3.7,12.7,-5c2.2,-.7,4.3,-1.5,6.5,-2.2l6.6,-1.9l3.3,-.9l3.3,-.7l6.7,-1.5c18,-3.6,36.3,-4.4,54.3,-2.3c2.3,.2,4.5,.6,6.8,1c2.2,.4,4.4,.7,6.6,1.3l6.6,1.5l1.7,.4l1.6,.5l3.3,1c2.1,.7,4.3,1.3,6.4,2.2c2.1,.8,4.2,1.6,6.4,2.4l6.2,2.8c2.1,.8,4,2,6.1,3c8,4.2,15.8,9,23,14.4c7.3,5.5,14.2,11.5,20.7,18c6.4,6.5,12.4,13.4,18,20.7c2.7,3.6,5.4,7.3,7.9,11.1c1.2,1.9,2.5,3.9,3.6,5.8c1.2,1.9,2.3,4,3.3,5.8Z" class="ge_1"/>
<path d="M464.2,384.8l-1,-1.8c-.5,-.8,-.9,-1.6,-1.4,-2.4c-1,-1.7,-2,-3.3,-3.1,-5c-2.2,-3.3,-4.6,-6.6,-7,-9.8c-4.9,-6.5,-10.2,-12.6,-15.9,-18.3c-5.7,-5.7,-11.7,-10.9,-18,-15.7c-6.3,-4.7,-13,-8.8,-19.8,-12.4c-1.8,-.8,-3.4,-1.8,-5.2,-2.6l-5.3,-2.3c-1.8,-.7,-3.6,-1.3,-5.3,-2c-1.8,-.8,-3.7,-1.3,-5.5,-1.8l-2.7,-.9l-1.4,-.4l-1.4,-.4l-5.5,-1.3c-1.9,-.5,-3.8,-.7,-5.7,-1c-1.9,-.4,-3.7,-.7,-5.7,-.9c-15.2,-1.8,-31,-1.2,-46.8,2.1l-5.9,1.2l-3,.7l-2.9,.8l-5.7,1.6c-1.9,.6,-3.7,1.3,-5.6,1.9c-3.8,1.2,-7.3,2.9,-10.9,4.3c-1.8,.8,-3.5,1.7,-5.3,2.5l-2.6,1.3c-.9,.4,-1.7,.9,-2.6,1.4c-13.6,7.4,-25.8,17.1,-36.2,28.7c-10.5,11.6,-19.2,25.2,-26.1,39.8c-3.4,7.3,-6.4,15,-8.8,22.7c-1.3,3.9,-2.3,7.8,-3.3,11.6c-.5,2,-.9,3.9,-1.3,5.8c-.2,.9,-.3,1.8,-.5,2.7l-.3,2l-11.8,-1.4l.2,-1.2l.2,-1.4c.2,-1,.4,-2,.6,-3.1c.4,-2,.9,-4.1,1.4,-6.2c1,-4.1,2.2,-8.3,3.5,-12.4c2.6,-8.2,5.8,-16.3,9.4,-24.1c7.3,-15.6,16.7,-30.1,28,-42.7c11.3,-12.6,24.6,-23.1,39.3,-31.2c1,-.5,1.9,-1,2.8,-1.5l2.8,-1.4c2,-.9,3.8,-1.9,5.8,-2.7c3.9,-1.6,7.7,-3.4,11.8,-4.7c2,-.6,4,-1.4,6,-2l6.2,-1.7l3.1,-.9l3.1,-.7l6.3,-1.4c16.9,-3.4,34,-4.1,50.6,-2.1c2.1,.1,4.1,.5,6.2,.9c2,.4,4.1,.6,6.1,1.1l6.1,1.5l1.6,.4l1.4,.4l3,1c2,.6,4,1.1,6,1.9c1.9,.8,3.9,1.5,5.8,2.3l5.8,2.5c1.9,.8,3.7,1.9,5.6,2.8c7.5,3.9,14.7,8.3,21.5,13.4c6.8,5.1,13.2,10.8,19.3,16.8c6.1,6.1,11.7,12.7,17,19.5c2.5,3.5,5.1,6.9,7.4,10.5c1.1,1.8,2.3,3.6,3.4,5.4c.5,.9,1,1.8,1.5,2.7l1.3,2.3Z" class="gf_1"/>
<path d="M453.6,390l.1,.3l-.1,-.2l-.2,-.3l-.5,-1c-.4,-.7,-.8,-1.4,-1.3,-2.2c-.8,-1.4,-1.8,-3,-2.8,-4.5c-2,-3.1,-4.3,-6.2,-6.5,-9.2c-4.6,-6,-9.6,-11.7,-14.9,-17c-5.3,-5.4,-10.9,-10.2,-16.7,-14.6c-5.8,-4.4,-11.9,-8.1,-18.2,-11.4c-1.6,-.8,-3.1,-1.7,-4.7,-2.3L383,325.4l-4.9,-1.8c-1.6,-.7,-3.2,-1.1,-4.9,-1.6l-2.5,-.8l-1.2,-.4l-1.3,-.3l-5,-1.2c-1.7,-.4,-3.5,-.6,-5.2,-1c-1.7,-.3,-3.4,-.6,-5.1,-.7c-13.9,-1.7,-28.3,-1.2,-43.1,1.9l-5.5,1.2l-2.8,.6l-2.7,.7l-5.3,1.5c-1.7,.6,-3.4,1.2,-5.2,1.8c-3.5,1,-6.7,2.6,-10,3.9c-1.7,.7,-3.2,1.6,-4.9,2.3l-2.4,1.2c-.8,.4,-1.5,.8,-2.3,1.3l-4.6,2.6l-4.5,2.8c-1.5,.9,-2.8,2.1,-4.3,3.1c-1.4,1,-2.9,2,-4.2,3.2c-5.6,4.3,-10.7,9.2,-15.5,14.6c-9.6,10.6,-17.7,23.1,-24.1,36.8c-3.2,6.9,-6.1,14,-8.3,21.3c-1.2,3.6,-2.2,7.3,-3.1,10.8c-.4,1.8,-.8,3.6,-1.2,5.3c-.2,.9,-.3,1.7,-.4,2.5l-.2,1.1l-.1,.4v.1c0,.1,0,-.1,0,-.2l-11.7,-1.5l.3,-2c.2,-.9,.3,-1.8,.5,-2.7c.4,-1.9,.8,-3.8,1.3,-5.8c1,-3.8,2,-7.7,3.3,-11.6c2.4,-7.7,5.4,-15.4,8.8,-22.7c6.9,-14.6,15.6,-28.2,26.1,-39.8C237.2,340.7,249.4,331,263,323.6c.9,-.5,1.7,-1,2.6,-1.4l2.6,-1.3c1.8,-.8,3.5,-1.7,5.3,-2.5c3.6,-1.4,7.1,-3.1,10.9,-4.3c1.9,-.6,3.7,-1.3,5.6,-1.9l5.7,-1.6l2.9,-.8l3,-.7l5.9,-1.2c15.8,-3.3,31.6,-3.9,46.8,-2.1c2,.2,3.8,.5,5.7,.9c1.9,.3,3.8,.5,5.7,1l5.5,1.3l1.4,.4l1.4,.4l2.7,.9c1.8,.5,3.7,1,5.5,1.8c1.7,.7,3.5,1.3,5.3,2l5.3,2.3c1.8,.8,3.4,1.8,5.2,2.6c6.8,3.6,13.5,7.7,19.8,12.4c6.3,4.8,12.3,10,18,15.7c5.7,5.7,11,11.8,15.9,18.3c2.4,3.2,4.8,6.5,7,9.8c1.1,1.7,2.1,3.3,3.1,5c.5,.8,.9,1.6,1.4,2.4l1,1.8Z" class="gg_1"/>
<path d="M421.1,304.2c-4.4,.3,-5.4,1,-7.2,5c-.2,-4.4,-.9,-5.4,-5,-7.1c4.4,-.3,5.4,-1,7.2,-5c.3,4.4,1,5.3,5,7.1Z" class="g3_1"/>
<path d="M172.4,355.3c-4.7,.3,-5.8,1,-7.7,5.3c-.3,-4.7,-1,-5.7,-5.3,-7.6c4.7,-.3,5.7,-1.1,7.6,-5.4c.3,4.7,1.1,5.8,5.4,7.7Z" class="g3_1"/>
<path d="M140.1,388.9c-4.8,.3,-5.8,1,-7.8,5.4c-.3,-4.8,-1,-5.8,-5.4,-7.8c4.8,-.3,5.8,-1,7.8,-5.4c.3,4.8,1,5.8,5.4,7.8Z" class="g3_1"/>
<path d="M226.1,280.4c-5.2,.3,-6.4,1.2,-8.6,6c-.3,-5.3,-1.1,-6.5,-6,-8.6c5.3,-.3,6.5,-1.2,8.6,-6c.4,5.3,1.2,6.5,6,8.6Z" class="g3_1"/>
<path d="M263.1,310.9c-7.3,.4,-9,1.6,-12,8.3c-.4,-7.3,-1.6,-9,-8.3,-11.9c7.3,-.5,9,-1.6,11.9,-8.4c.5,7.4,1.7,9,8.4,12Z" class="g3_1"/>
<path d="M285.1,261.3c-5.1,.3,-6.3,1.1,-8.4,5.9c-.3,-5.2,-1.1,-6.3,-5.8,-8.4c5.1,-.4,6.3,-1.2,8.4,-5.9c.3,5.2,1.1,6.3,5.8,8.4Z" class="g3_1"/>
<path d="M445.9,334.2c-5.6,.3,-6.8,1.2,-9.1,6.3c-.3,-5.6,-1.2,-6.8,-6.3,-9c5.6,-.4,6.8,-1.3,9,-6.3c.4,5.5,1.3,6.7,6.4,9Z" class="g3_1"/>
<path d="M395.2,319.4c-7.8,.5,-9.5,1.7,-12.7,8.8c-.5,-7.8,-1.7,-9.5,-8.9,-12.7c7.8,-.5,9.6,-1.7,12.7,-8.9c.5,7.9,1.8,9.6,8.9,12.8Z" class="g3_1"/>
<path d="M331.2,306.3c-4.2,.3,-5.1,.9,-6.8,4.8c-.3,-4.2,-.9,-5.2,-4.7,-6.9c4.1,-.2,5.1,-.9,6.8,-4.7c.2,4.2,.9,5.1,4.7,6.8Z" class="g3_1"/>
<path d="M298.4,289.5c-4.1,.3,-5,.9,-6.7,4.6c-.2,-4,-.9,-5,-4.6,-6.6c4.1,-.3,5,-.9,6.6,-4.6c.3,4,.9,4.9,4.7,6.6Z" class="g3_1"/>
<path d="M195.3,321.6c-4.4,.3,-5.4,1,-7.2,5c-.3,-4.4,-.9,-5.4,-5,-7.1c4.4,-.3,5.4,-1,7.2,-5c.3,4.4,.9,5.3,5,7.1Z" class="g3_1"/>
<path d="M497.1,322.3c-4.6,.3,-5.7,1,-7.5,5.2c-.3,-4.6,-1,-5.6,-5.3,-7.5c4.6,-.3,5.7,-1,7.5,-5.2c.3,4.6,1.1,5.6,5.3,7.5Z" class="g3_1"/>
<path d="M418.2,260.1c-6.9,.4,-8.4,1.5,-11.2,7.8c-.4,-6.9,-1.5,-8.4,-7.7,-11.2c6.8,-.4,8.3,-1.5,11.1,-7.7c.4,6.8,1.5,8.3,7.8,11.1Z" class="g3_1"/>
<path d="M464.6,293.9c-6.2,.4,-7.6,1.4,-10.2,7.1c-.4,-6.3,-1.3,-7.7,-7.1,-10.2c6.3,-.4,7.7,-1.4,10.2,-7.1c.4,6.2,1.4,7.6,7.1,10.2Z" class="g3_1"/>
<path d="M365.7,249.2c-4.6,.2,-5.7,1,-7.5,5.2c-.3,-4.6,-1.1,-5.7,-5.3,-7.5c4.6,-.3,5.7,-1,7.5,-5.3c.3,4.6,1.1,5.7,5.3,7.6Z" class="g3_1"/>
<path d="M356.8,281.4c-4,.3,-4.9,.9,-6.5,4.5c-.2,-3.9,-.8,-4.8,-4.5,-6.4c4,-.3,4.9,-.9,6.5,-4.5c.2,4,.9,4.8,4.5,6.4Z" class="g3_1"/>
<path d="M222.7,349.3c-4.6,.3,-5.6,1,-7.5,5.2c-.3,-4.6,-1,-5.6,-5.2,-7.5c4.6,-.3,5.6,-1,7.5,-5.2c.3,4.6,1,5.6,5.2,7.5Z" class="g3_1"/>
<path d="M205.8,394c-8.6,.5,-10.5,1.9,-14,9.7c-.5,-8.5,-1.9,-10.5,-9.7,-13.9c8.5,-.6,10.5,-1.9,13.9,-9.8c.6,8.6,1.9,10.5,9.8,14Z" class="g3_1"/>
<path d="M112.4,394c-.4,-.1,-.7,-.5,-.6,-1c.1,-.5,8.1,-53.3,60.9,-108.4c.3,-.4,.8,-.4,1.2,0c.3,.3,.3,.8,0,1.1c-52.5,54.7,-60.4,107,-60.5,107.6c-.1,.4,-.5,.7,-.9,.7h-.1Z" class="ga_1"/>
<path d="M408.6,353.7c-.1,0,-.3,0,-.4,-.2C372.3,321.7,326.6,328.6,326.1,328.7c-.4,0,-.8,-.3,-.9,-.7c-.1,-.5,.2,-.9,.7,-1c.4,0,46.9,-7,83.4,25.3c.3,.3,.4,.8,.1,1.2c-.2,.2,-.5,.3,-.8,.2Z" class="gg_1"/>
<path d="M525.4,330.7c-.3,-.1,-.5,-.2,-.6,-.5c-.2,-.4,-18.9,-38.4,-81.5,-77.8c-.4,-.3,-.5,-.8,-.3,-1.2c.3,-.4,.8,-.5,1.2,-.2c63,39.7,81.9,78.1,82.1,78.5c.2,.4,0,.9,-.4,1.1c-.2,.1,-.4,.1,-.5,.1Z" class="ga_1"/>
<path d="M187.5,351.2c-.1,0,-.2,0,-.3,-.1c-.4,-.2,-.5,-.7,-.3,-1.1c.2,-.3,18.4,-31.7,62.1,-56.3c.4,-.2,.9,-.1,1.1,.3c.3,.4,.1,.9,-.3,1.1c-43.2,24.3,-61.3,55.4,-61.5,55.7c-.2,.3,-.5,.5,-.8,.4Z" class="g3_1"/>
<path d="M567.4,354.8c-3.3,-.7,-6.5,-.1,-9.3,1.2c-2.1,-3,-5.3,-5.2,-9.2,-6c-4.4,-.9,-8.8,.3,-12.1,3c-.9,-5.9,-5.4,-10.9,-11.6,-12.2c-5.1,-1,-10.1,.7,-13.5,4.2c-1.4,-5.2,-5.6,-9.3,-11.2,-10.5c-5.2,-1,-10.2,.8,-13.6,4.3c-1.9,-4,-5.6,-7,-10.2,-7.9c-7.7,-1.6,-15.1,3.1,-17.2,10.6c-1.2,-.6,-2.5,-1.1,-4,-1.4c-7.5,-1.5,-15,2,-18.8,8.3c-1.2,-.6,-2.4,-1,-3.8,-1.3c-8.8,-1.8,-17.5,3.9,-19.3,12.8c-1,4.9,.3,9.7,3.2,13.4c-6.1,-.7,-11.8,3.4,-13,9.6c-1.3,6.5,2.9,12.9,9.4,14.2c1.1,.3,2.2,.3,3.3,.2c1.7,5.6,6.3,10,12.4,11.3c2.8,.6,5.5,.4,8.1,-.4c2.8,6.6,8.7,11.7,16.3,13.3c9.1,1.8,18,-2.1,23,-9.2c2.4,1.6,5,2.7,8,3.3c9.6,2,19,-2.5,23.9,-10.4c2.2,5.3,6.9,9.5,12.9,10.7c8.8,1.8,17.3,-3.2,20.3,-11.3c.7,.2,1.4,.4,2.1,.6c9.7,1.9,19.1,-4.3,21.1,-14c.5,-2.5,.4,-4.9,0,-7.2c6.8,-.1,12.9,-4.9,14.3,-11.8c1.7,-8,-3.5,-15.8,-11.5,-17.4Z" class="g3_1"/>
<path d="M210.7,452.8c-.7,0,-1.3,.1,-2,.1c.2,-1,.3,-2.1,.3,-3.1c0,-11,-8.9,-19.9,-19.9,-19.9c-6.5,0,-12.3,3.2,-15.9,8.1c-3.6,-5.5,-9.7,-9.1,-16.7,-9.1c-5.2,0,-9.8,2,-13.3,5.2c-4.4,-6,-11.4,-9.9,-19.4,-9.9c-13.2,0,-23.9,10.7,-23.9,23.9c0,.5,.1,.9,.1,1.4c-2.5,-1.9,-5.7,-3.1,-9.2,-3.1c-7.1,0,-13,4.9,-14.6,11.5c-10.6,.7,-19,9.4,-19,20.2c0,8.2,5,15.3,12.1,18.4c-.4,1.4,-.7,2.9,-.7,4.4c0,8.4,6.8,15.2,15.2,15.2c4.5,0,8.5,-2,11.3,-5.1c2.5,5,7.6,8.5,13.6,8.5c6.6,0,12.2,-4.3,14.2,-10.1c2.1,1,4.5,1.6,7,1.6c3.8,0,7.2,-1.4,9.9,-3.7c2.6,4.5,7.4,7.4,13,7.4c6.5,0,12,-4.1,14.2,-9.8c2.7,6.4,9,10.9,16.4,10.9c9.1,0,16.7,-6.9,17.7,-15.8c2.9,1.3,6.2,2,9.6,2c13.5,0,24.5,-11,24.5,-24.6c0,-13.6,-11,-24.6,-24.5,-24.6Z" class="g3_1"/>
<path d="M391.4,199.4c-1.6,-.4,-3.2,-.1,-4.6,.5c-1,-1.4,-2.5,-2.5,-4.4,-2.9c-2.1,-.4,-4.3,.2,-5.9,1.5c-.4,-2.9,-2.6,-5.3,-5.6,-5.9c-2.5,-.5,-4.9,.3,-6.5,2c-.7,-2.5,-2.8,-4.5,-5.5,-5.1c-2.5,-.5,-4.9,.4,-6.6,2.1c-.9,-1.9,-2.7,-3.4,-5,-3.9c-3.7,-.7,-7.3,1.6,-8.3,5.2c-.6,-.3,-1.2,-.5,-1.9,-.7c-3.7,-.7,-7.3,1,-9.1,4c-.6,-.2,-1.2,-.5,-1.9,-.6c-4.3,-.9,-8.5,1.9,-9.3,6.2c-.5,2.4,.1,4.7,1.5,6.5c-3,-.3,-5.7,1.7,-6.3,4.7c-.7,3.1,1.4,6.2,4.6,6.9c.5,.1,1,.1,1.5,.1c.9,2.7,3.1,4.8,6,5.4c1.4,.3,2.7,.2,4,-.2c1.4,3.2,4.2,5.7,7.9,6.5c4.4,.9,8.7,-1,11.2,-4.4c1.1,.7,2.4,1.3,3.8,1.6c4.7,.9,9.3,-1.2,11.6,-5.1c1.1,2.6,3.4,4.6,6.3,5.2c4.3,.9,8.4,-1.5,9.9,-5.5c.3,.1,.6,.2,1,.3c4.7,.9,9.3,-2.1,10.2,-6.8c.3,-1.2,.2,-2.4,0,-3.5c3.3,0,6.3,-2.3,7,-5.7c.8,-3.9,-1.7,-7.7,-5.6,-8.4Z" class="g3_1"/>
<path d="M235.2,236.4c-1.2,-.2,-2.3,0,-3.2,.4c-.7,-1,-1.8,-1.8,-3.1,-2c-1.6,-.3,-3.1,.1,-4.2,1c-.3,-2,-1.8,-3.7,-4,-4.2c-1.7,-.3,-3.4,.3,-4.6,1.5c-.4,-1.8,-1.9,-3.2,-3.8,-3.6c-1.7,-.4,-3.5,.2,-4.6,1.4c-.7,-1.3,-1.9,-2.3,-3.5,-2.7c-2.6,-.5,-5.2,1.1,-5.9,3.7c-.4,-.2,-.8,-.4,-1.3,-.5c-2.6,-.5,-5.2,.7,-6.4,2.8c-.5,-.2,-.9,-.3,-1.3,-.4c-3.1,-.6,-6,1.3,-6.6,4.3c-.4,1.7,.1,3.4,1.1,4.6c-2.1,-.2,-4.1,1.2,-4.5,3.3c-.4,2.2,1,4.4,3.2,4.9c.4,0,.8,0,1.1,0c.6,1.9,2.2,3.4,4.3,3.9c.9,.2,1.9,.1,2.7,-.2c1,2.3,3,4,5.6,4.6c3.1,.6,6.1,-.7,7.9,-3.2c.8,.6,1.7,1,2.7,1.2c3.3,.6,6.5,-.9,8.1,-3.6c.8,1.8,2.4,3.2,4.5,3.7c2.9,.6,5.9,-1.1,6.9,-3.9c.2,.1,.4,.1,.7,.2c3.3,.7,6.5,-1.5,7.2,-4.8c.2,-.8,.1,-1.6,0,-2.4c2.3,0,4.4,-1.7,4.9,-4.1c.5,-2.7,-1.2,-5.3,-3.9,-5.9Z" class="g3_1"/>
<path d="M149.7,183.4c-1.7,-.4,-3.4,-.1,-4.8,.6c-1.1,-1.6,-2.7,-2.7,-4.7,-3.1c-2.3,-.5,-4.5,.1,-6.2,1.5c-.5,-3,-2.8,-5.6,-6,-6.2c-2.6,-.6,-5.2,.3,-6.9,2.1c-.7,-2.6,-2.9,-4.8,-5.7,-5.4c-2.7,-.5,-5.3,.4,-7,2.2c-1,-2,-2.9,-3.5,-5.3,-4c-3.9,-.8,-7.7,1.6,-8.7,5.4c-.7,-.3,-1.4,-.5,-2.1,-.7c-3.9,-.8,-7.7,1,-9.6,4.3c-.7,-.3,-1.3,-.6,-2,-.7c-4.5,-.9,-9,2,-9.9,6.5c-.5,2.6,.2,5,1.7,6.9c-3.2,-.3,-6.1,1.8,-6.7,4.9c-.7,3.4,1.5,6.7,4.8,7.4c.6,.1,1.1,.1,1.7,.1c.9,2.8,3.2,5.1,6.3,5.7c1.5,.3,2.9,.2,4.2,-.2c1.4,3.4,4.5,6,8.3,6.8c4.7,1,9.3,-1,11.9,-4.7c1.2,.8,2.5,1.4,4.1,1.7c4.9,1,9.7,-1.2,12.2,-5.3c1.1,2.7,3.5,4.8,6.6,5.5c4.5,.9,8.9,-1.7,10.4,-5.8c.4,.1,.7,.2,1.1,.3c5,1,9.8,-2.2,10.8,-7.2c.3,-1.3,.3,-2.5,0,-3.7c3.5,0,6.7,-2.5,7.4,-6.1c.8,-4,-1.8,-8,-5.9,-8.8Z" class="g3_1"/>
</svg>